<?xml version="1.0" standalone="no"?>
<!DOCTYPE svg PUBLIC "-//W3C//DTD SVG 1.1//EN" "http://www.w3.org/Graphics/SVG/1.1/DTD/svg11.dtd" >
<svg>
<metadata>
Created by FontForge 20090914 at Tue Dec  4 18:36:56 2012
 By www-data
Typeface data Copyright &#194;&#169; 1992-94 The Monotype Corporation. Copyright 1994 Microsoft Corporation. All rights reserved.
</metadata>
<defs>
<font id="AbadiMT-CondensedLight" horiz-adv-x="832" >
  <font-face 
    font-family="Abadi MT Condensed Light"
    font-weight="300"
    font-stretch="condensed"
    units-per-em="2048"
    panose-1="2 11 3 6 3 1 1 1 1 3"
    ascent="1638"
    descent="-410"
    x-height="953"
    cap-height="1395"
    bbox="-352 -505.001 2069 1869"
    underline-thickness="102"
    underline-position="-154"
    unicode-range="U+0020-U+F002"
  />
<missing-glyph horiz-adv-x="1536" 
d="M256 0v1280h1024v-1280h-1024zM288 32h960v1216h-960v-1216z" />
    <glyph glyph-name=".notdef" horiz-adv-x="1536" 
d="M256 0v1280h1024v-1280h-1024zM288 32h960v1216h-960v-1216z" />
    <glyph glyph-name="space" unicode=" " horiz-adv-x="469" 
 />
    <glyph glyph-name="exclam" unicode="!" horiz-adv-x="427" 
d="M144 1395h140l-20 -1046h-105zM208 231c51.333 0 77 -42 77 -126c0 -84.667 -24.667 -127 -74 -127c-48.667 0 -73 42 -73 126c0 40 6.83301 71.167 20.5 93.5s30.167 33.5 49.5 33.5z" />
    <glyph glyph-name="quotedbl" unicode="&#x22;" horiz-adv-x="576" 
d="M80 1395h149v-233l-30 -272h-89l-30 272v233zM345 1395h151v-233l-31 -272h-89l-31 272v233z" />
    <glyph glyph-name="numbersign" unicode="#" horiz-adv-x="1365" 
d="M91 960h331l87 411h103l-87 -411h440l84 411h105l-87 -411h206v-104h-224l-84 -388h308v-106h-328l-85 -409h-105l87 409h-442l-83 -409h-106l86 409h-206v106h226l83 388h-309v104zM503 856l-82 -388h442l81 388h-441z" />
    <glyph glyph-name="dollar" unicode="$" horiz-adv-x="896" 
d="M417 1481l103.001 0.000976562v-131c97.333 -10 181.333 -42 252 -96v-167c-74 75.333 -158 119.333 -252 132v-484c220 -60.667 330 -176.667 330 -348c0 -69.333 -16.333 -132.833 -49 -190.5s-72.334 -101 -119.001 -130s-100.667 -51.167 -162 -66.5v-148h-103v129
c-114.667 5.33301 -224 43.666 -328 114.999v173c106.667 -96.667 216 -147.667 328 -153v515c-218.667 48.667 -328 165 -328 349c0 96 29.5 177 88.5 243s138.833 108.333 239.5 127v131zM417.001 1214c-126 -32.667 -189 -110.667 -189 -234c0 -112 63 -186 189 -222v456
zM520.001 607.001v-478.999c126.667 42.667 190 125 190 247c0 111.333 -63.333 188.666 -190 231.999z" />
    <glyph glyph-name="percent" unicode="%" horiz-adv-x="1451" 
d="M1123 1493l-683.999 -1589h-115l567 1317c-57.333 -28 -108.666 -42 -153.999 -42c-48.667 0 -97.334 14 -146.001 42c17.333 -60 26 -121.667 26 -185c0 -104 -23.667 -189.833 -71 -257.5s-115 -101.5 -203 -101.5c-86 0 -152.833 32.833 -200.5 98.5
s-71.5 153.834 -71.5 264.501c0 121.333 24.333 214.666 73 279.999s114 98 196 98c46.667 0 105.667 -20.667 177 -62c83.333 -48.667 154.666 -73 213.999 -73c72.667 0 129 17.333 169 52s76.333 87.334 109 158.001h114zM352.001 1312
c-52 0 -91.167 -25.167 -117.5 -75.5s-39.5 -116.833 -39.5 -199.5c0 -80 14 -142.667 42 -188s64 -68 108 -68c46 0 82.333 24.5 109 73.5s40 113.833 40 194.5c0 83.333 -13.667 148 -41 194s-61 69 -101 69zM1092 717.999c94.667 0 166.332 -33.999 214.999 -101.999
s73 -156 73 -264c0 -122 -25.167 -214.833 -75.5 -278.5s-117.166 -95.5 -200.499 -95.5c-87.333 0 -155.166 34.167 -203.499 102.5s-72.5 154.833 -72.5 259.5c0 125.333 25.667 219.666 77 282.999s113.666 95 186.999 95zM1108 614
c-50.667 0 -88.833 -22.833 -114.5 -68.5s-38.5 -114.5 -38.5 -206.5c0 -78.667 13.5 -140.834 40.5 -186.501s62.833 -68.5 107.5 -68.5c46 0 82 23.667 108 71s39 113.333 39 198c0 88.667 -14.167 154.334 -42.5 197.001s-61.5 64 -99.5 64z" />
    <glyph glyph-name="ampersand" unicode="&#x26;" horiz-adv-x="981" 
d="M360 857l-16.999 36.999c-44 97.333 -66 176 -66 236c0 86.667 26.333 156.334 79 209.001s119 79 199 79c48 0 101.667 -11.333 161 -34v-133c-49.333 34 -100.333 51 -153 51c-48.667 0 -88.167 -15.5 -118.5 -46.5s-45.5 -72.5 -45.5 -124.5
c0 -58.667 20 -126.334 60 -203.001l281 -540c29.333 109.333 44 218.666 44 327.999v77h124c-2.66699 -210 -35.334 -384.333 -98.001 -523l138 -270h-138l-70 148c-82.667 -113.333 -182 -170 -298 -170c-108 0 -197.5 39.333 -268.5 118s-106.5 177.334 -106.5 296.001
c0 90.667 21.833 172.334 65.5 245.001s119.5 146 227.5 220zM407.001 769.999c-75.333 -54 -129.168 -107.5 -161.501 -160.5s-48.5 -117.5 -48.5 -193.5c0 -95.333 23.333 -172.5 70 -231.5s106.667 -88.5 180 -88.5c90.667 0 170.334 49.667 239.001 149z" />
    <glyph glyph-name="quotesingle" unicode="'" horiz-adv-x="448" 
d="M150 1395h148v-235l-26 -267h-91l-31 267v235z" />
    <glyph glyph-name="parenleft" unicode="(" horiz-adv-x="640" 
d="M527 1395c-84.667 -146 -142.831 -287.332 -174.498 -423.999s-47.5 -304.667 -47.5 -504c0 -213.333 16.167 -377.333 48.5 -492s90.166 -249.334 173.499 -404.001h-114c-90.667 162 -153.834 313 -189.501 453s-53.5 292 -53.5 456c0 320.667 81 625.667 243 915h114z
" />
    <glyph glyph-name="parenright" unicode=")" horiz-adv-x="640" 
d="M113 -429c85.333 146 143.666 287.332 174.999 423.999s47 304.667 47 504c0 213.333 -16 377.333 -48 492s-90 249.334 -174 404.001h114c90.667 -162 153.834 -313 189.501 -453s53.5 -292 53.5 -456c0 -320.667 -81 -625.667 -243 -915h-114z" />
    <glyph glyph-name="asterisk" unicode="*" horiz-adv-x="896" 
d="M178 1284l221 -125v255h98v-255l221 125l48 -83l-224 -127l224 -121l-48 -89l-221 127v-254h-98v254l-221 -127l-48 89l217 121l-217 127z" />
    <glyph glyph-name="plus" unicode="+" horiz-adv-x="1365" 
d="M141 718h485v488h108v-488h489v-108h-489v-482h-108v482h-485v108z" />
    <glyph glyph-name="comma" unicode="," horiz-adv-x="427" 
d="M216 -263l-69.001 0.00195312c40 85.333 63 166.666 69 243.999c-25.333 12.667 -44.333 28.5 -57 47.5s-19 41.5 -19 67.5c0 43.333 9.83301 78.333 29.5 105s42.834 40 69.501 40s48.167 -14.333 64.5 -43s24.5 -64.334 24.5 -107.001
c0 -54 -9.33301 -110.5 -28 -169.5s-46.667 -120.5 -84 -184.5z" />
    <glyph glyph-name="hyphen" unicode="-" horiz-adv-x="576" 
d="M67 550h443v-125h-443v125z" />
    <glyph glyph-name="period" unicode="." horiz-adv-x="427" 
d="M212 239c57.333 0 86 -40.666 86 -121.999c0 -85.333 -28 -128 -84 -128c-27.333 0 -48.333 11.667 -63 35s-22 52.666 -22 87.999c0 39.333 8.16699 70.333 24.5 93s35.833 34 58.5 34z" />
    <glyph glyph-name="slash" unicode="/" horiz-adv-x="576" 
d="M434 1423h108l-403 -1586h-106z" />
    <glyph glyph-name="zero" unicode="0" horiz-adv-x="939" 
d="M464 1356c90.667 0 168.332 -31.5 232.999 -94.5s109.834 -153 135.501 -270s38.5 -231.833 38.5 -344.5c0 -204 -37.167 -366.5 -111.5 -487.5s-172.833 -181.5 -295.5 -181.5c-77.333 0 -148.5 28.5 -213.5 85.5s-112 142.667 -141 257s-43.5 234.833 -43.5 361.5
c0 145.333 19.5 271.333 58.5 378s89.333 182.667 151 228s124.5 68 188.5 68zM476.998 1242c-92.667 0 -162.667 -51.332 -210 -153.999s-71 -244.334 -71 -425.001c0 -179.333 23.833 -319 71.5 -419s113.5 -150 197.5 -150c53.333 0 102.833 22.833 148.5 68.5
s78.5 120.5 98.5 224.5s30 203.667 30 299c0 180 -26.167 317.667 -78.5 413s-114.5 143 -186.5 143z" />
    <glyph glyph-name="one" unicode="1" horiz-adv-x="939" 
d="M472 1333l103.001 -0.000976562v-1333h-119v1008h-222v96h52c57.333 0 102.666 15.833 135.999 47.5s50 78.834 50 141.501v40z" />
    <glyph glyph-name="two" unicode="2" horiz-adv-x="939" 
d="M104 0l0.000976562 74c0 106 12.333 190.5 37 253.5s55.167 112.333 91.5 148s135.166 124.167 296.499 265.5c55.333 48.667 94.833 92.667 118.5 132s35.5 82.666 35.5 129.999c0 70 -22.5 127 -67.5 171s-98.5 66 -160.5 66c-87.333 0 -182.666 -42.333 -285.999 -127
v144c111.333 66 210.666 99 297.999 99c99.333 0 182 -30.5 248 -91.5s99 -145.5 99 -253.5c0 -80 -18.833 -147.167 -56.5 -201.5s-105.5 -121.5 -203.5 -201.5c-136 -112 -224.333 -197.667 -265 -257s-61 -118.666 -61 -177.999v-56h605v-117h-729z" />
    <glyph glyph-name="three" unicode="3" horiz-adv-x="939" 
d="M157 211c83.333 -78 165.997 -117.001 247.997 -117.001c77.333 0 142.5 26.833 195.5 80.5s79.5 121.834 79.5 204.501c0 78.667 -24.667 142.5 -74 191.5s-118.666 73.5 -207.999 73.5h-115v111h63c82 0 148.167 23.167 198.5 69.5s75.5 107.5 75.5 183.5
c0 68.667 -20.167 124.667 -60.5 168s-89.166 65 -146.499 65c-85.333 0 -170.666 -39.333 -255.999 -118v148c95.333 56.667 183 85 263 85c95.333 0 174 -29.333 236 -88s93 -138 93 -238c0 -82 -20 -146.833 -60 -194.5s-97.667 -88.834 -173 -123.501
c98 -15.333 171.5 -50.166 220.5 -104.499s73.5 -128.5 73.5 -222.5c0 -114.667 -39.5 -211.167 -118.5 -289.5s-172.167 -117.5 -279.5 -117.5c-86.667 0 -171.667 28 -255 84v149z" />
    <glyph glyph-name="four" unicode="4" horiz-adv-x="939" 
d="M589 1333h126v-835h168v-117h-168v-381h-126v381h-507v117zM589 1136l-387 -638h387v638z" />
    <glyph glyph-name="five" unicode="5" horiz-adv-x="939" 
d="M170 1333l592.001 0.000976562v-116h-469v-465c32 31.333 65.667 54.666 101 69.999s72.666 23 111.999 23c94 0 173.833 -39.167 239.5 -117.5s98.5 -174.833 98.5 -289.5c0 -128.667 -40.5 -237.5 -121.5 -326.5s-179.5 -133.5 -295.5 -133.5
c-75.333 0 -161 26.333 -257 79v148c92.667 -74 176 -111 250 -111c84 0 154 32.833 210 98.5s84 144.167 84 235.5c0 81.333 -23.333 151.5 -70 210.5s-108 88.5 -184 88.5c-33.333 0 -65 -7.5 -95 -22.5s-58.333 -37.833 -85 -68.5h-110v697z" />
    <glyph glyph-name="six" unicode="6" horiz-adv-x="939" 
d="M227 608c46.667 69.333 95.1689 121.166 145.502 155.499s102.5 51.5 156.5 51.5c94 0 171.5 -38.667 232.5 -116s91.5 -173.666 91.5 -288.999c0 -122.667 -34.333 -225.334 -103 -308.001s-153 -124 -253 -124c-78.667 0 -150.334 27.667 -215.001 83
s-111 137.333 -139 246s-42 223 -42 343c0 146.667 20.167 272.834 60.5 378.501s93 186.667 158 243s139.833 84.5 224.5 84.5c72 0 146.667 -21.667 224 -65v-144c-68.667 61.333 -136.334 92 -203.001 92c-70 0 -132.5 -26.167 -187.5 -78.5
s-93.833 -122.5 -116.5 -210.5s-34 -187.667 -34 -299v-43zM239.002 444c10 -103.333 40.334 -187.501 91.001 -252.501s108 -97.5 172 -97.5c63.333 0 116 28.833 158 86.5s63 131.834 63 222.501c0 86.667 -19.833 158 -59.5 214s-89.834 84 -150.501 84
c-58 0 -109.833 -21.333 -155.5 -64s-85.167 -107 -118.5 -193z" />
    <glyph glyph-name="seven" unicode="7" horiz-adv-x="939" 
d="M105 1333h743v-116l-505 -1217h-134l511 1217h-615v116z" />
    <glyph glyph-name="eight" unicode="8" horiz-adv-x="939" 
d="M363 687c-148.667 89.333 -222.999 199.666 -222.999 330.999c0 96 31.167 176.333 93.5 241s142.833 97 241.5 97c91.333 0 167.666 -27.833 228.999 -83.5s92 -126.5 92 -212.5c0 -62.667 -17.667 -119.667 -53 -171s-94 -103.333 -176 -156
c109.333 -50 185.333 -104 228 -162s64 -126.667 64 -206c0 -116.667 -39.167 -210.334 -117.5 -281.001s-171.5 -106 -279.5 -106c-107.333 0 -198.5 34 -273.5 102s-112.5 152 -112.5 252c0 72.667 22.5 136.334 67.5 191.001s118.167 109.334 219.5 164.001zM467.001 770
c132.667 78 199.001 168 199.001 270c0 56.667 -18.667 104.5 -56 143.5s-83 58.5 -137 58.5c-56.667 0 -104.834 -20.333 -144.501 -61s-59.5 -91.667 -59.5 -153c0 -111.333 66 -197.333 198 -258zM467.002 647c-174 -86.667 -261.001 -190 -261.001 -310
c0 -68 25.167 -125.167 75.5 -171.5s111.833 -69.5 184.5 -69.5c74.667 0 137.334 24.667 188.001 74s76 110.333 76 183c0 134.667 -87.667 232.667 -263 294z" />
    <glyph glyph-name="nine" unicode="9" horiz-adv-x="939" 
d="M718 727c-88 -138 -188 -206.999 -300 -206.999c-92.667 0 -169.667 38.167 -231 114.5s-92 173.5 -92 291.5c0 121.333 33.167 223.333 99.5 306s151.833 124 256.5 124c84 0 157 -28.833 219 -86.5s106.833 -138.334 134.5 -242.001s41.5 -216.5 41.5 -338.5
c0 -125.333 -17.667 -244.5 -53 -357.5s-88.666 -200.167 -159.999 -261.5s-150 -92 -236 -92c-67.333 0 -140 22.333 -218 67v141c62.667 -60 131 -90 205 -90c52 0 100.667 15.333 146 46s84.166 79.334 116.499 146.001s52.333 132.167 60 196.5
s11.5 145.166 11.5 242.499zM708 890.001c-16.667 106 -47.167 190.833 -91.5 254.5s-101.166 95.5 -170.499 95.5c-63.333 0 -116.5 -28.833 -159.5 -86.5s-64.5 -131.5 -64.5 -221.5c0 -84 19.667 -154.667 59 -212s90.333 -86 153 -86c50.667 0 101.167 21.5 151.5 64.5
s91.166 106.833 122.499 191.5z" />
    <glyph glyph-name="colon" unicode=":" horiz-adv-x="427" 
d="M212 959c57.333 0 86 -40.666 86 -121.999c0 -85.333 -28 -128 -84 -128c-27.333 0 -48.333 11.667 -63 35s-22 52.666 -22 87.999c0 40 8.16699 71.167 24.5 93.5s35.833 33.5 58.5 33.5zM212 239.001c57.333 0 86 -40.666 86 -121.999c0 -85.333 -28 -128 -84 -128
c-27.333 0 -48.333 11.667 -63 35s-22 52.666 -22 87.999c0 39.333 8.16699 70.333 24.5 93s35.833 34 58.5 34z" />
    <glyph glyph-name="semicolon" unicode=";" horiz-adv-x="427" 
d="M222 962c60 0 90 -40.666 90 -121.999c0 -37.333 -8 -68 -24 -92s-36.667 -36 -62 -36c-26 0 -46.833 11.667 -62.5 35s-23.5 52.666 -23.5 87.999s7.66699 65.333 23 90s35 37 59 37zM216 -262.999l-69.001 0.00195312c40 85.333 63 166.666 69 243.999
c-25.333 12.667 -44.333 28.5 -57 47.5s-19 41.5 -19 67.5c0 43.333 9.83301 78.333 29.5 105s42.834 40 69.501 40s48.167 -14.333 64.5 -43s24.5 -64.334 24.5 -107.001c0 -54 -9.33301 -110.5 -28 -169.5s-46.667 -120.5 -84 -184.5z" />
    <glyph glyph-name="less" unicode="&#x3c;" horiz-adv-x="1365" 
d="M1222 163l-1078 456v97l1078 455v-118l-934 -385l934 -388v-117z" />
    <glyph glyph-name="equal" unicode="=" horiz-adv-x="1365" 
d="M144 954h1078v-109h-1078v109zM144 488h1078v-108h-1078v108z" />
    <glyph glyph-name="greater" unicode="&#x3e;" horiz-adv-x="1365" 
d="M144 1171l1078 -457v-97l-1078 -454v117l934 386l-934 387v118z" />
    <glyph glyph-name="question" unicode="?" horiz-adv-x="853" 
d="M114 1309c117.333 72.667 227.001 109.001 329.001 109.001c100 0 186 -31.5 258 -94.5s108 -146.5 108 -250.5c0 -70.667 -16.667 -129.5 -50 -176.5s-102 -115.833 -206 -206.5c-52 -45.333 -86.333 -85 -103 -119s-25 -79.667 -25 -137v-84h-124v71
c0 88 13.333 156.667 40 206s84 111.666 172 186.999c72.667 62 118.5 110 137.5 144s28.5 70.333 28.5 109c0 64 -23.333 117.833 -70 161.5s-107.334 65.5 -182.001 65.5c-84 0 -188.333 -42.667 -313 -128v143zM360.001 231.001c50.667 0 76 -41.333 76 -124
c0 -86 -25 -129 -75 -129c-48.667 0 -73 42 -73 126c0 84.667 24 127 72 127z" />
    <glyph glyph-name="at" unicode="@" horiz-adv-x="1643" 
d="M1155 949l106.001 -0.000976562l-99 -449c-25.333 -114 -38 -195 -38 -243c0 -4 0.333008 -9.33301 1 -16c117.333 35.333 206.666 105.666 267.999 210.999s92 222 92 350c0 150.667 -45.667 269.5 -137 356.5s-216 130.5 -374 130.5
c-171.333 0 -317.333 -37.333 -438 -112s-213.167 -174.167 -277.5 -298.5s-96.5 -272.166 -96.5 -443.499c0 -205.333 56 -370.5 168 -495.5s271.667 -187.5 479 -187.5c186.667 0 354.667 53 504 159l-19 -150c-56.667 -38.667 -135.5 -70.334 -236.5 -95.001
s-194.167 -37 -279.5 -37c-139.333 0 -270 35.5 -392 106.5s-212.833 170.167 -272.5 297.5s-89.5 268.333 -89.5 423c0 280.667 89.333 511.167 268 691.5s406.334 270.5 683.001 270.5c120.667 0 229 -23 325 -69s173.333 -113.833 232 -203.5s88 -202.834 88 -339.501
c0 -141.333 -31.333 -265.166 -94 -371.499s-134.167 -184.333 -214.5 -234s-186.833 -83.834 -319.5 -102.501c-0.666992 32.667 -1 58.334 -1 77.001c0 40 1.66699 83 5 129c-24 -50.667 -62.5 -96 -115.5 -136s-110.833 -60 -173.5 -60
c-82.667 0 -147.667 31.667 -195 95s-71 146 -71 248c0 96.667 20.5 183.334 61.5 260.001s97.167 138.334 168.5 185.001s141.666 70 210.999 70c77.333 0 152.333 -33.333 225 -100zM1078 749.999c-61.333 58 -123.668 86.998 -187.001 86.998
c-86 0 -159.667 -38.667 -221 -116s-92 -168.666 -92 -273.999c0 -60 15.333 -109.667 46 -149s70.667 -59 120 -59c32.667 0 67.334 10.333 104.001 31s70.667 51.167 102 91.5s53.833 78.333 67.5 114s26.5 86.834 38.5 153.501z" />
    <glyph glyph-name="A" unicode="A" horiz-adv-x="896" 
d="M378 1395h134l389 -1395h-152l-118 482h-371l-117 -482h-149zM443 1225l-155 -630h313z" />
    <glyph glyph-name="B" unicode="B" horiz-adv-x="1003" 
d="M124 1395h369.999c108.667 0 195.834 -26.833 261.501 -80.5s98.5 -134.5 98.5 -242.5c0 -77.333 -19.333 -143.333 -58 -198s-97 -98.334 -175 -131.001c110 -10 192.5 -43.167 247.5 -99.5s82.5 -135.833 82.5 -238.5c0 -78.667 -16.333 -146.167 -49 -202.5
s-81.5 -104.166 -146.5 -143.499s-143.5 -59 -235.5 -59h-396v1395zM258.999 1277l-0.000976562 -489h152c94.667 0 168.834 23.333 222.501 70s80.5 113.667 80.5 201c0 72.667 -21.833 127.167 -65.5 163.5s-109.167 54.5 -196.5 54.5h-193zM258.998 671
l0.000976562 -554.001h225c104 0 184.167 26.667 240.5 80s84.5 125.333 84.5 216s-30.333 156.334 -91 197.001s-154.334 61 -281.001 61h-178z" />
    <glyph glyph-name="C" unicode="C" 
d="M788 64c-94 -57.333 -181.669 -86.002 -263.002 -86.002c-96 0 -179.667 32 -251 96s-123.333 152.333 -156 265s-49 233.334 -49 362.001c0 212 42 384.5 126 517.5s198 199.5 342 199.5c82.667 0 166.334 -28.333 251.001 -85v-162c-88.667 82 -170.667 123 -246 123
c-102 0 -183 -53.667 -243 -161s-90 -259.666 -90 -456.999c0 -165.333 28.833 -302.333 86.5 -411s136.834 -163 237.501 -163c77.333 0 162.333 42.333 255 127v-165z" />
    <glyph glyph-name="D" unicode="D" horiz-adv-x="1003" 
d="M125 1395l322.001 -0.000976562c162.667 0 284 -60.5 364 -181.5s120 -296.833 120 -527.5c0 -129.333 -18.167 -248.666 -54.5 -357.999s-92.333 -191.333 -168 -246s-162.834 -82 -261.501 -82h-322v1395zM261.001 1273v-1154h186c121.333 0 208.666 51 261.999 153
s80 254.333 80 457c0 176.667 -27.667 311.5 -83 404.5s-141.666 139.5 -258.999 139.5h-186z" />
    <glyph glyph-name="E" unicode="E" horiz-adv-x="896" 
d="M130 1395h677v-118h-542v-491h512v-116h-512v-554h542v-116h-677v1395z" />
    <glyph glyph-name="F" unicode="F" 
d="M129 1395h654v-120h-519v-521h488v-113h-488v-641h-135v1395z" />
    <glyph glyph-name="G" unicode="G" horiz-adv-x="917" 
d="M711 137c-31.333 -52.667 -66.834 -92.334 -106.501 -119.001s-83.5 -40 -131.5 -40c-76 0 -147.667 31.667 -215 95s-116.666 151 -147.999 263s-47 228 -47 348c0 222 46 399.833 138 533.5s212 200.5 360 200.5c83.333 0 169 -28.667 257 -86v-168
c-91.333 86 -178 129 -260 129c-108 0 -194.5 -55.667 -259.5 -167s-97.5 -262.333 -97.5 -453c0 -156.667 27.167 -290.667 81.5 -402s123.833 -167 208.5 -167c60 0 111.667 29.833 155 89.5s65 132.834 65 219.501v166h-257v119h392v-698h-86z" />
    <glyph glyph-name="H" unicode="H" horiz-adv-x="1024" 
d="M129 1395h135v-606h492v606h136v-1395h-136v671h-492v-671h-135v1395z" />
    <glyph glyph-name="I" unicode="I" horiz-adv-x="405" 
d="M133 1395h136v-1395h-136v1395z" />
    <glyph glyph-name="J" unicode="J" horiz-adv-x="469" 
d="M206 1395h135.999v-1177c0 -80 -16.667 -140 -50 -180s-83.333 -60 -150 -60c-44.667 0 -84.667 7.33301 -120 22v145c32 -20.667 63.333 -31 94 -31s53.334 9.5 68.001 28.5s22 53.167 22 102.5v1150z" />
    <glyph glyph-name="K" unicode="K" horiz-adv-x="917" 
d="M133 1395h135v-664l446 664h161l-382 -542l420 -853h-158l-341 731l-146 -201v-530h-135v1395z" />
    <glyph glyph-name="L" unicode="L" horiz-adv-x="811" 
d="M135 1395h137v-1278h518v-117h-655v1395z" />
    <glyph glyph-name="M" unicode="M" horiz-adv-x="1195" 
d="M298 1395l301 -768.001l299 768h163v-1395h-123v890l1 229c0 28.667 -0.333008 71.334 -1 128.001c-24 -91.333 -56 -189.333 -96 -294l-243 -633l-206 532l-143 383c8.66699 -300.667 13 -467.667 13 -501v-734h-129v1395h164z" />
    <glyph glyph-name="N" unicode="N" horiz-adv-x="1024" 
d="M265 1395l412.999 -929.001l108 -245c-7.33301 250.667 -11 380.334 -11 389.001v785h121v-1395h-136l-400 895c-11.333 25.333 -32.666 79.333 -63.999 162l-48 123c-2 -28 -3 -44.333 -3 -49l5 -108l1 -155l-3 -60v-808h-121v1395h138z" />
    <glyph glyph-name="O" unicode="O" horiz-adv-x="1045" 
d="M528 1418c134.667 0 243.667 -65 327 -195s125 -312.667 125 -548c0 -211.333 -43 -380.333 -129 -507s-195.333 -190 -328 -190c-135.333 0 -245.333 62.5 -330 187.5s-127 298.167 -127 519.5c0 225.333 41 403.833 123 535.5s195 197.5 339 197.5zM534 1294
c-112 0 -194.5 -56.832 -247.5 -170.499s-79.5 -262.5 -79.5 -446.5c0 -174 27.667 -312.833 83 -416.5s132 -155.5 230 -155.5c99.333 0 177 53.333 233 160s84 251.667 84 435c0 199.333 -29.5 348.166 -88.5 446.499s-130.5 147.5 -214.5 147.5z" />
    <glyph glyph-name="P" unicode="P" horiz-adv-x="960" 
d="M130 1395l385.001 0.000976562c121.333 0 216.666 -30.167 285.999 -90.5s104 -149.833 104 -268.5c0 -126.667 -39.333 -225.334 -118 -296.001s-182.667 -106 -312 -106h-208v-634h-137v1395zM267.001 1275l0.000976562 -523h205c87.333 0 157.666 24.167 210.999 72.5
s80 115.833 80 202.5c0 78 -22 138.833 -66 182.5s-105.333 65.5 -184 65.5h-246z" />
    <glyph glyph-name="Q" unicode="Q" horiz-adv-x="1045" 
d="M720 36c24.667 -65.333 49.832 -113.836 75.499 -145.503s61.5 -47.5 107.5 -47.5c31.333 0 62.333 8.66699 93 26v-120c-41.333 -14 -80.333 -21 -117 -21c-71.333 0 -124.5 22 -159.5 66s-70.167 109.333 -105.5 196c-36.667 -8 -69.667 -12 -99 -12
c-126.667 0 -233.5 60 -320.5 180s-130.5 298 -130.5 534c0 220 41.333 396 124 528s194 198 334 198c94.667 0 177.334 -31.667 248.001 -95s122.667 -152.166 156 -266.499s50 -239.833 50 -376.5c0 -129.333 -19.167 -251.166 -57.5 -365.499
s-104.5 -207.166 -198.5 -278.499zM667.998 158.997c110 96 164.999 274.334 164.999 535.001c0 181.333 -27 326.166 -81 434.499s-131.333 162.5 -232 162.5c-96.667 0 -173.667 -50.833 -231 -152.5s-86 -258.5 -86 -470.5c0 -180 29.333 -319.333 88 -418
s137 -148 235 -148c18.667 0 32.334 2 41.001 6l-141 333h124z" />
    <glyph glyph-name="R" unicode="R" horiz-adv-x="939" 
d="M135 1395l336.001 -0.000976562c121.333 0 218.833 -27.833 292.5 -83.5s110.5 -140.5 110.5 -254.5c0 -86 -23.167 -160.5 -69.5 -223.5s-118.5 -110.5 -216.5 -142.5c67.333 -17.333 117.166 -47.166 149.499 -89.499s56.833 -104.5 73.5 -186.5l82 -415h-145l-55 336
c-18 106.667 -48.167 183.667 -90.5 231s-103.5 71 -183.5 71h-151v-638h-133v1395zM268.001 1273l-0.000976562 -521.998h139c98.667 0 178.334 26.167 239.001 78.5s91 123.166 91 212.499c0 77.333 -21.667 135.166 -65 173.499s-108.333 57.5 -195 57.5h-209z" />
    <glyph glyph-name="S" unicode="S" horiz-adv-x="853" 
d="M60 268c71.333 -58 129.167 -97.835 173.5 -119.502s89.5 -32.5 135.5 -32.5c72.667 0 137.5 26 194.5 78s85.5 119.667 85.5 203c0 62.667 -18.667 115 -56 157c-38 41.333 -110.333 82 -217 122c-211.333 80 -317 201.333 -317 364
c0 104.667 37.5 193.834 112.5 267.501s164.833 110.5 269.5 110.5c86 0 174.667 -32 266 -96v-181c-58 54 -105.833 91 -143.5 111s-77.5 30 -119.5 30c-70 0 -128.167 -24 -174.5 -72s-69.5 -103.667 -69.5 -167c0 -64 20.833 -114.5 62.5 -151.5
s117.167 -77.833 226.5 -122.5c66 -26.667 119.167 -53.667 159.5 -81s74 -66 101 -116s40.5 -107 40.5 -171c0 -119.333 -41.333 -219.666 -124 -300.999s-180.667 -122 -294 -122c-98.667 0 -202.667 38.333 -312 115v175z" />
    <glyph glyph-name="T" unicode="T" 
d="M24 1395h783v-118h-328v-1277h-133v1277h-322v118z" />
    <glyph glyph-name="U" unicode="U" horiz-adv-x="960" 
d="M108 1395h134.999v-1004c0 -90 21.167 -161.333 63.5 -214s101.5 -79 177.5 -79c72.667 0 130.834 25.333 174.501 76s65.5 123 65.5 217v1004h137v-1004c0 -126 -34.5 -226.333 -103.5 -301s-160.833 -112 -275.5 -112c-116.667 0 -208.167 40.167 -274.5 120.5
s-99.5 187.5 -99.5 321.5v975z" />
    <glyph glyph-name="V" unicode="V" horiz-adv-x="917" 
d="M3 1395h149l309 -1215l294 1215h150l-380 -1395h-135z" />
    <glyph glyph-name="W" unicode="W" horiz-adv-x="1131" 
d="M985 1395l139.999 -0.000976562l-253 -1395h-132l-148 929l-34 262c-21.333 -172.667 -39.666 -305.667 -54.999 -399l-129 -792h-130l-256 1395h150l129 -847c4 -25.333 11.333 -82.666 22 -171.999c3.33301 -31.333 10.333 -82.666 21 -153.999l34 253
c4 39.333 8 70.666 12 93.999l130 826h133l143 -847l46 -326l46 326z" />
    <glyph glyph-name="X" unicode="X" horiz-adv-x="853" 
d="M58 1395h160l199 -500l193 500h158l-275 -623l351 -772h-159l-268 648l-261 -648h-156l343 772z" />
    <glyph glyph-name="Y" unicode="Y" 
d="M8 1395h158l256 -617l245 617h156l-335 -756v-639h-137v639z" />
    <glyph glyph-name="Z" unicode="Z" horiz-adv-x="853" 
d="M56 1395h707v-119l-608 -1158h693v-118h-843v118l602 1158h-551v119z" />
    <glyph glyph-name="bracketleft" unicode="[" horiz-adv-x="683" 
d="M274 1395h311v-78h-200v-1675h200v-83h-311v1836z" />
    <glyph glyph-name="backslash" unicode="\" horiz-adv-x="576" 
d="M21 1425h109l424 -1588h-106z" />
    <glyph glyph-name="bracketright" unicode="]" horiz-adv-x="683" 
d="M409 -441h-311v78h201v1676h-201v82h311v-1836z" />
    <glyph glyph-name="asciicircum" unicode="^" horiz-adv-x="1344" 
d="M671 1421l448 -537l-65 -54l-383 461l-384 -461l-63 54z" />
    <glyph glyph-name="underscore" unicode="_" horiz-adv-x="1024" 
d="M-12 -154h1048v-102h-1048v102z" />
    <glyph glyph-name="grave" unicode="`" horiz-adv-x="683" 
d="M179 1384h147l150 -293h-83z" />
    <glyph glyph-name="a" unicode="a" 
d="M139 890c102 56.667 187.667 85.002 257 85.002c100 0 175.667 -29 227 -87c51.333 -58.667 77 -137.334 77 -236.001v-503c0 -36.667 17.333 -55 52 -55c18 0 36 5 54 15v-109c-32 -14.667 -64.667 -22 -98 -22c-86.667 0 -131.334 51 -134.001 153
c-32.667 -50.667 -69 -88.834 -109 -114.501s-83.333 -38.5 -130 -38.5c-76 0 -139.667 27.667 -191 83s-77 123 -77 203c0 84.667 31.833 155 95.5 211s200.834 94 411.501 114v82c0 54 -17.5 98.5 -52.5 133.5s-78.5 52.5 -130.5 52.5c-74 0 -158 -36.667 -252 -110v143z
M574 491.002c-164.667 -20 -268.833 -48.167 -312.5 -84.5s-65.5 -82.5 -65.5 -138.5c0 -50.667 16 -92.5 48 -125.5s72.333 -49.5 121 -49.5c60.667 0 110.667 25.333 150 76s59 115.667 59 195v127z" />
    <glyph glyph-name="b" unicode="b" horiz-adv-x="875" 
d="M236 1416v-601c32 53.333 67.667 93.333 107 120s82 40 128 40c100.667 0 182.167 -47.5 244.5 -142.5s93.5 -209.833 93.5 -344.5c0 -146 -35 -267.5 -105 -364.5s-156 -145.5 -258 -145.5c-38.667 0 -72.167 7.5 -100.5 22.5s-64.833 42.833 -109.5 83.5l-33 -84h-93
v1416h126zM236 203c28.667 -36 58.166 -63.168 88.499 -81.501s61.5 -27.5 93.5 -27.5c76 0 138.167 36 186.5 108s72.5 166 72.5 282c0 104.667 -21 193.334 -63 266.001s-98 109 -168 109c-63.333 0 -114.166 -29.833 -152.499 -89.5s-57.5 -129.5 -57.5 -209.5v-357z" />
    <glyph glyph-name="c" unicode="c" horiz-adv-x="725" 
d="M678 43c-74.667 -43.333 -147.333 -65 -218 -65c-116.667 0 -211.334 46.833 -284.001 140.5s-109 209.5 -109 347.5c0 142 37.833 262.333 113.5 361s173.5 148 293.5 148c66.667 0 134.667 -20 204 -60v-139c-67.333 54 -132.333 81 -195 81
c-81.333 0 -149.666 -36.333 -204.999 -109s-83 -164 -83 -274c0 -100 25 -188 75 -264s117.333 -114 202 -114c62 0 130.667 27.333 206 82v-135z" />
    <glyph glyph-name="d" unicode="d" horiz-adv-x="875" 
d="M637 1395l127.001 -0.000976562v-1395h-127v134c-31.333 -52 -66.833 -91 -106.5 -117s-83.167 -39 -130.5 -39c-100 0 -181 49.167 -243 147.5s-93 212.833 -93 343.5c0 140 34.167 259.333 102.5 358s155.166 148 260.499 148c34 0 68.5 -7.66699 103.5 -23
s70.5 -38.666 106.5 -69.999v513zM637.001 760.999c-26 32 -54.3311 55.832 -84.998 71.499s-64 23.5 -100 23.5c-74 0 -135.667 -35.333 -185 -106s-74 -164 -74 -280c0 -108.667 21.667 -198.667 65 -270s98.666 -107 165.999 -107c59.333 0 109.666 26.333 150.999 79
s62 119.334 62 200.001v389z" />
    <glyph glyph-name="e" unicode="e" 
d="M740 100c-101.333 -81.333 -200.333 -122 -297 -122c-113.333 0 -205 45.5 -275 136.5s-105 209.5 -105 355.5c0 150.667 36.167 272.5 108.5 365.5s163.833 139.5 274.5 139.5c98 0 176.667 -37.5 236 -112.5s89 -169.833 89 -284.5v-62h-579v-49
c0 -124 25.833 -217.667 77.5 -281s112.167 -95 181.5 -95c96 0 192.333 53 289 159v-150zM637 623c-2.66699 79.333 -23.001 138.833 -61.001 178.5s-82.333 59.5 -133 59.5c-51.333 0 -99.166 -19.833 -143.499 -59.5s-75.833 -99.167 -94.5 -178.5h432z" />
    <glyph glyph-name="f" unicode="f" horiz-adv-x="427" 
d="M133 953v214.999c0 83.333 16.333 145.833 49 187.5s81.667 62.5 147 62.5c32.667 0 70 -7.66699 112 -23v-115c-33.333 14.667 -62 22 -86 22c-28.667 0 -52 -9.16699 -70 -27.5s-27 -42.166 -27 -71.499v-250h183v-110h-183v-843h-125v843h-129v110h129z" />
    <glyph glyph-name="g" unicode="g" horiz-adv-x="875" 
d="M670 953l92.998 0.000976562v-1008c0 -128.667 -35 -229.334 -105 -302.001s-154 -109 -252 -109c-86 0 -178.667 34 -278 102v149c96.667 -92.667 187.667 -139 273 -139c70.667 0 127.667 27.667 171 83s65 127.333 65 216v205
c-33.333 -50 -69.666 -87.5 -108.999 -112.5s-81.666 -37.5 -126.999 -37.5c-96.667 0 -177 46.667 -241 140s-96 205 -96 335c0 140 35.667 258.333 107 355s156 145 254 145c42 0 80.667 -9.16699 116 -27.5s67.333 -45.833 96 -82.5zM636.998 749.001
c-28.667 35.333 -58.668 61.666 -90.001 78.999s-64.333 26 -99 26c-73.333 0 -133.666 -35.667 -180.999 -107s-71 -162.333 -71 -273c0 -101.333 20.667 -187.166 62 -257.499s97 -105.5 167 -105.5c60.667 0 111.167 27.667 151.5 83s60.5 127 60.5 215v340z" />
    <glyph glyph-name="h" unicode="h" horiz-adv-x="853" 
d="M111 1395h126v-572c31.333 50.667 67.666 88.667 108.999 114s88 38 140 38c78 0 140.5 -27.333 187.5 -82s70.5 -124.334 70.5 -209.001v-684h-125v684c0 52.667 -15.167 94.834 -45.5 126.501s-68.166 47.5 -113.499 47.5c-62.667 0 -115.5 -27 -158.5 -81
s-64.5 -116.667 -64.5 -188v-589h-126v1395z" />
    <glyph glyph-name="i" unicode="i" horiz-adv-x="341" 
d="M174 1375c49.333 0 74 -37.667 74 -113c0 -79.333 -25.333 -119 -76 -119c-48.667 0 -73 38.333 -73 115c0 78 25 117 75 117zM110 953h125v-953h-125v953z" />
    <glyph glyph-name="j" unicode="j" horiz-adv-x="341" 
d="M171 1375c49.333 0 74 -38.667 74 -116c0 -76.667 -25 -115 -75 -115c-48 0 -72 38 -72 114c0 78 24.333 117 73 117zM109 953l124.001 0.000976562v-1170c0 -82.667 -16.5 -144.834 -49.5 -186.501s-82.5 -62.5 -148.5 -62.5c-38.667 0 -74.334 7.33301 -107.001 22v120
c28 -16.667 56 -25 84 -25c32.667 0 57 11 73 33s24 55 24 99v1170z" />
    <glyph glyph-name="k" unicode="k" horiz-adv-x="747" 
d="M102 1395h126v-861l338 419h147l-297 -350l342 -603h-152l-268 513l-110 -132v-381h-126v1395z" />
    <glyph glyph-name="l" unicode="l" horiz-adv-x="341" 
d="M109 1395h126v-1395h-126v1395z" />
    <glyph glyph-name="m" unicode="m" horiz-adv-x="1237" 
d="M667 816c26 53.333 58.001 93.165 96.001 119.498s81.667 39.5 131 39.5c72.667 0 129.167 -24.167 169.5 -72.5s60.5 -112.166 60.5 -191.499v-711h-126v711c0 45.333 -12.167 81.333 -36.5 108s-54.833 40 -91.5 40c-52.667 0 -97.834 -25.333 -135.501 -76
s-56.5 -108 -56.5 -172v-611h-126v711c0 48.667 -10.167 85.167 -30.5 109.5s-51.166 36.5 -92.499 36.5c-56.667 0 -103.334 -25.167 -140.001 -75.5s-55 -113.5 -55 -189.5v-592h-123v953h110l13 -122c27.333 48 59.5 84 96.5 108s79.167 36 126.5 36
c52.667 0 96.5 -13.167 131.5 -39.5s61.167 -66.166 78.5 -119.499z" />
    <glyph glyph-name="n" unicode="n" horiz-adv-x="853" 
d="M111 953l113.003 0.000976562l12 -136c33.333 52.667 71.166 92.167 113.499 118.5s89.166 39.5 140.499 39.5c81.333 0 144.666 -27.333 189.999 -82s68 -127.667 68 -219v-674h-127v674c0 56 -14.667 100.667 -44 134s-67.333 50 -114 50
c-63.333 0 -117 -27.833 -161 -83.5s-66 -119.834 -66 -192.501v-582h-125v953z" />
    <glyph glyph-name="o" unicode="o" horiz-adv-x="875" 
d="M440 975c104.667 0 191.999 -45.5 261.999 -136.5s105 -211.5 105 -361.5c0 -86.667 -13.833 -168.5 -41.5 -245.5s-70.5 -138.5 -128.5 -184.5s-125.333 -69 -202 -69c-114 0 -203.833 47 -269.5 141s-98.5 211.667 -98.5 353c0 112.667 20.667 210 62 292
s91.833 137.667 151.5 167s112.834 44 159.501 44zM447.999 857c-83.333 0 -146 -35.332 -188 -105.999s-63 -167 -63 -289c0 -104.667 20.667 -192.334 62 -263.001s99.333 -106 174 -106c70.667 0 128.834 32.833 174.501 98.5s68.5 161.5 68.5 287.5
c0 120 -22.333 213 -67 279s-98.334 99 -161.001 99z" />
    <glyph glyph-name="p" unicode="p" horiz-adv-x="875" 
d="M233 -444l-124 -0.000976562v1397h112l12 -138c34 53.333 71.167 93.333 111.5 120s83.5 40 129.5 40c102 0 182.833 -47.167 242.5 -141.5s89.5 -210.166 89.5 -347.499c0 -166.667 -38.5 -293 -115.5 -379s-161.5 -129 -253.5 -129c-36 0 -71 7.66699 -105 23
s-67 38.333 -99 69v-514zM233 187.999c27.333 -31.333 56.501 -55 87.501 -71s63.833 -24 98.5 -24c75.333 0 137.166 35.667 185.499 107s72.5 164.333 72.5 279c0 105.333 -21.167 194.833 -63.5 268.5s-98.5 110.5 -168.5 110.5c-61.333 0 -112 -29.167 -152 -87.5
s-60 -125.5 -60 -201.5v-381z" />
    <glyph glyph-name="q" unicode="q" horiz-adv-x="875" 
d="M640 -444v574c-35.333 -50.667 -72.5 -88.667 -111.5 -114s-79.833 -38 -122.5 -38c-102 0 -184 48 -246 144s-93 209 -93 339c0 145.333 35.333 267.333 106 366s155 148 253 148c39.333 0 76.833 -9.16699 112.5 -27.5s69.5 -45.833 101.5 -82.5l32 88h94v-1397h-126z
M640 752c-30 35.333 -60.999 61.667 -92.999 79s-65 26 -99 26c-72.667 0 -132.667 -36.667 -180 -110s-71 -168 -71 -284c0 -108.667 21.167 -197.5 63.5 -266.5s97.166 -103.5 164.499 -103.5c61.333 0 112.5 27.333 153.5 82s61.5 125 61.5 211v366z" />
    <glyph glyph-name="r" unicode="r" horiz-adv-x="576" 
d="M244 812c30 54.667 63.501 95.5 100.501 122.5s77.5 40.5 121.5 40.5c32.667 0 65.667 -7.33301 99 -22v-118c-38.667 14.667 -71.334 22 -98.001 22c-63.333 0 -116.333 -29.667 -159 -89s-64 -127.333 -64 -204v-564h-123v953h112z" />
    <glyph glyph-name="s" unicode="s" horiz-adv-x="747" 
d="M69 208c93.333 -76 182.331 -114.001 266.998 -114.001c65.333 0 119.333 16.5 162 49.5s64 74.833 64 125.5c0 36.667 -14.167 67.334 -42.5 92.001s-83.166 49 -164.499 73c-100 30 -173 64.333 -219 103s-69 92.334 -69 161.001c0 78.667 31 144.5 93 197.5
s138.667 79.5 230 79.5c73.333 0 156.666 -26 249.999 -78v-142c-79.333 69.333 -160.666 104 -243.999 104c-57.333 0 -104.5 -15.333 -141.5 -46s-55.5 -67.667 -55.5 -111c0 -36.667 16.667 -66.667 50 -90c32.667 -24 87 -46.667 163 -68
c186.667 -52 280 -140.667 280 -266c0 -84.667 -34.167 -155.834 -102.5 -213.501s-151.166 -86.5 -248.499 -86.5c-90 0 -180.667 29 -272 87v143z" />
    <glyph glyph-name="t" unicode="t" horiz-adv-x="491" 
d="M155 1237h113v-284h181v-110h-181v-666c0 -28 7.33301 -49.167 22 -63.5s36.667 -21.5 66 -21.5c26.667 0 57.667 10.667 93 32v-124c-44 -14.667 -87 -22 -129 -22c-51.333 0 -93.333 15 -126 45s-49 75.333 -49 136v684h-131v110h131z" />
    <glyph glyph-name="u" unicode="u" horiz-adv-x="853" 
d="M614 953l125 0.000976562v-953h-125v131c-35.333 -50.667 -74 -88.834 -116 -114.501s-87.333 -38.5 -136 -38.5c-81.333 0 -144.833 27.667 -190.5 83s-68.5 129.333 -68.5 222v670h124v-670c0 -63.333 13.333 -110.833 40 -142.5s66.667 -47.5 120 -47.5
c66.667 0 121.167 28.167 163.5 84.5s63.5 128.833 63.5 217.5v558z" />
    <glyph glyph-name="v" unicode="v" horiz-adv-x="725" 
d="M1 953h137l225 -795l218 795h135l-295 -953h-122z" />
    <glyph glyph-name="w" unicode="w" horiz-adv-x="1003" 
d="M876 953l123.998 -0.000976562l-219 -953h-114l-114 535c-2 6.66699 -5.33301 19.667 -10 39c-15.333 64 -28.666 137.667 -39.999 221c-8 -76.667 -20.667 -158.667 -38 -246l-108 -549h-118l-232 953h132l100 -490l62 -334c12.667 80 31.334 186 56.001 318l91 506h115
l118 -538c10 -45.333 20.667 -100.666 32 -165.999c6 -34 12.667 -69.333 20 -106c16.667 112.667 32.667 209.667 48 291z" />
    <glyph glyph-name="x" unicode="x" horiz-adv-x="704" 
d="M43 953h151l150 -342l152 342h144l-227 -438l278 -515h-153l-194 421l-198 -421h-143l271 515z" />
    <glyph glyph-name="y" unicode="y" horiz-adv-x="725" 
d="M9 953h139l235 -798l205 798h135l-320 -1111c-34 -118.667 -69 -199.667 -105 -243s-88 -65 -156 -65c-24 0 -49.667 7.33301 -77 22v117c28 -8.66699 51 -13 69 -13c37.333 0 67.333 16.5 90 49.5s48.667 100.833 78 203.5l21 76z" />
    <glyph glyph-name="z" unicode="z" horiz-adv-x="768" 
d="M84 953h617v-121l-498 -715h528v-117h-677v117l494 715h-464v121z" />
    <glyph glyph-name="braceleft" unicode="{" horiz-adv-x="683" 
d="M585 1414l-0.00195312 -109.999c-65.333 -2.66699 -108.666 -13 -129.999 -31s-34.833 -52.833 -40.5 -104.5s-8.5 -147.834 -8.5 -288.501c0 -100.667 -7.5 -175.167 -22.5 -223.5s-35.667 -87.833 -62 -118.5s-64.166 -58 -113.499 -82
c70.667 -30 121.5 -75.5 152.5 -136.5s46.5 -155.5 46.5 -283.5l-1 -180c0 -114 11.5 -182.833 34.5 -206.5s71.167 -37.834 144.5 -42.501v-112h-27c-86.667 0 -152.5 25.667 -197.5 77s-67.5 141.333 -67.5 270v210c0 132.667 -15.5 221.167 -46.5 265.5
s-79.833 68.5 -146.5 72.5v131c41.333 2 75.833 12.667 103.5 32s49.5 51.333 65.5 96s24 112.334 24 203.001v135c0 108 5.83301 188.167 17.5 240.5s39 96.5 82 132.5s93.167 54 150.5 54l11 3c18 0 28.333 -1 31 -3z" />
    <glyph glyph-name="bar" unicode="|" horiz-adv-x="1045" 
d="M468 1418h109v-1884h-109v1884z" />
    <glyph glyph-name="braceright" unicode="}" horiz-adv-x="683" 
d="M97 -501v112.996c65.333 2.66699 108.666 13 129.999 31s35 52.833 41 104.5s9 147.834 9 288.501c0 100.667 7.33301 175.334 22 224.001s35.167 88.167 61.5 118.5s64.166 57.5 113.499 81.5c-70 30 -120.5 75.5 -151.5 136.5s-46.5 155.5 -46.5 283.5v180
c0 86.667 -7.5 149.167 -22.5 187.5s-67.167 58.833 -156.5 61.5v109h28c86 0 151.5 -25.333 196.5 -76s67.5 -140 67.5 -268v-210c0 -127.333 14.833 -215.166 44.5 -263.499s79.167 -73.166 148.5 -74.499v-131c-41.333 -2 -75.666 -12.5 -102.999 -31.5
s-49.166 -51 -65.499 -96s-24.5 -112.833 -24.5 -203.5v-135c0 -108.667 -5.83301 -189.5 -17.5 -242.5s-39 -97.5 -82 -133.5s-93.167 -54 -150.5 -54h-27c0.666992 0 -4.33301 0 -15 0z" />
    <glyph glyph-name="asciitilde" unicode="~" horiz-adv-x="1344" 
d="M1209 656c-107.333 -83.333 -202 -125 -284 -125c-60 0 -155.333 30.667 -286 92c-101.333 47.333 -174 71 -218 71c-80 0 -175.333 -45 -286 -135v121c103.333 81.333 201 122 293 122c55.333 0 151 -31.667 287 -95c96 -44.667 166.667 -67 212 -67
c81.333 0 175.333 46.333 282 139v-123z" />
    <glyph glyph-name="nonbreakingspace" unicode="&#xa0;" horiz-adv-x="469" 
 />
    <glyph glyph-name="exclamdown" unicode="&#xa1;" horiz-adv-x="427" 
d="M219 724c-51.333 0 -77 42 -77 126c0 84.667 24.667 127 74 127c48.667 0 73 -42 73 -126c0 -40 -6.66699 -71.167 -20 -93.5s-30 -33.5 -50 -33.5zM283 -441h-139l19 1047h105z" />
    <glyph glyph-name="cent" unicode="&#xa2;" horiz-adv-x="768" 
d="M458 1332l101.998 0.00488281v-171c55.333 -8.66699 104.666 -26 147.999 -52v-130c-48 35.333 -97.333 57 -148 65v-753c54.667 11.333 104 33.666 148 66.999v-137c-47.333 -22.667 -96.666 -39.334 -147.999 -50.001v-171h-102v171
c-121.333 20.667 -212.166 78.167 -272.499 172.5s-90.5 200.166 -90.5 317.499c0 123.333 32.833 233.166 98.5 329.499s153.834 153.166 264.501 170.499v171zM457.998 287.005v753.999c-154 -52.667 -231 -180.334 -231 -383.001c0 -105.333 21 -189.166 63 -251.499
s98 -102.166 168 -119.499z" />
    <glyph glyph-name="sterling" unicode="&#xa3;" horiz-adv-x="917" 
d="M306 718c-6 16 -16.665 40.3291 -31.998 72.9961c-44.667 97.333 -67 173.333 -67 228c0 96.667 34.833 177 104.5 241s155.5 96 257.5 96c90.667 0 181 -28.333 271 -85v-147c-93.333 78 -180.333 117 -261 117c-69.333 0 -127.333 -20.667 -174 -62
s-70 -93.666 -70 -156.999c0 -48 22.667 -120 68 -216c16 -33.333 28.667 -62.666 38 -87.999h271v-109h-253c-4 -76.667 -17.833 -140.667 -41.5 -192s-66.834 -123 -129.501 -215c18.667 13.333 36.5 23.333 53.5 30s33.167 10 48.5 10c42 0 100 -25.667 174 -77
c66.667 -46 116.667 -69 150 -69c28 0 65.333 17 112 51l14 10v-134c-50.667 -30 -97.334 -45 -140.001 -45c-50.667 0 -115.667 27 -195 81c-68 46 -121.333 69 -160 69c-26.667 0 -51.167 -9.33301 -73.5 -28s-47.5 -52 -75.5 -100h-135c28 49.333 60 100 96 152
c80.667 118.667 130.167 205.834 148.5 261.501s27.833 120.834 28.5 195.501h-234v109h206z" />
    <glyph glyph-name="currency" unicode="&#xa4;" horiz-adv-x="1387" 
d="M972 1019l126.001 125.997l73 -76l-125 -125c64 -89.333 96 -181.666 96 -276.999c0 -52 -6.83301 -98.5 -20.5 -139.5s-38.834 -87.167 -75.501 -138.5l125 -124l-73 -75l-126 125c-44 -32 -89 -56 -135 -72s-93.333 -24 -142 -24c-99.333 0 -192 32 -278 96l-126 -125
l-75 75l126 124c-64 88.667 -96 181 -96 277c0 98.667 32 191.334 96 278.001l-126 125l75 76l126 -126c44.667 32 90 56 136 72s92.333 24 139 24c51.333 0 97.5 -6.66699 138.5 -20s88.167 -38.666 141.5 -75.999zM352.001 674.997
c0 -103.333 34.168 -187.5 102.501 -252.5s148.166 -97.5 239.499 -97.5c94 0 174.333 33.5 241 100.5s100 147.5 100 241.5c0 93.333 -33.333 173.5 -100 240.5s-147 100.5 -241 100.5c-98 0 -179.5 -34.5 -244.5 -103.5s-97.5 -145.5 -97.5 -229.5z" />
    <glyph glyph-name="yen" unicode="&#xa5;" 
d="M547 777h277v-90h-317l-20 -46v-252h337v-91h-337v-298h-137v298h-341v91h341v252l-20 46h-321v90h280l-280 618h156l256 -618l245 618h158z" />
    <glyph glyph-name="brokenbar" unicode="&#xa6;" horiz-adv-x="1045" 
d="M468 1418h109v-718h-109v718zM468 255h109v-721h-109v721z" />
    <glyph glyph-name="section" unicode="&#xa7;" horiz-adv-x="853" 
d="M237 902c-52 70.667 -77.999 139.001 -77.999 205.001c0 74 26.5 136.667 79.5 188s115.833 77 188.5 77c43.333 0 85.166 -10.333 125.499 -31s74.666 -54.5 102.999 -101.5s44.833 -112.167 49.5 -195.5h-109c-16.667 156.667 -74 235 -172 235
c-45.333 0 -82.666 -16.833 -111.999 -50.5s-44 -72.167 -44 -115.5c0 -41.333 14 -81 42 -119s87.333 -93.333 178 -166c121.333 -96.667 199.833 -171.167 235.5 -223.5s53.5 -112.833 53.5 -181.5c0 -56.667 -12.333 -106 -37 -148s-66 -81.333 -124 -118
c28 -34 49 -68.667 63 -104s21 -71.333 21 -108c0 -86 -27.167 -157.667 -81.5 -215s-122.166 -86 -203.499 -86c-76.667 0 -142.334 26 -197.001 78s-87 137.333 -97 256h116c17.333 -159.333 76.333 -239 177 -239c52 0 94.5 18.5 127.5 55.5s49.5 81.833 49.5 134.5
c0 28 -4.66699 54.667 -14 80s-23.666 49 -42.999 71c-38.667 44.667 -105.334 102 -200.001 172c-96 71.333 -163.667 134.166 -203 188.499s-59 113.833 -59 178.5c0 54.667 11 103 33 145s66 88 132 138zM291.001 847.001c-77.333 -76 -116 -148.001 -116 -216.001
c0 -56 20 -105.5 60 -148.5s102.667 -96.5 188 -160.5c35.333 -26 83.333 -63.667 144 -113c66 64 99 133.667 99 209c0 50.667 -16 96.334 -48 137.001s-109.667 112 -233 214z" />
    <glyph glyph-name="dieresis" unicode="&#xa8;" horiz-adv-x="683" 
d="M191 1363c49.333 0 74 -42 74 -126c0 -84.667 -25 -127 -75 -127c-48 0 -72 41 -72 123c0 86.667 24.333 130 73 130zM489 1361c50 0 75 -41.333 75 -124c0 -85.333 -24.333 -128 -73 -128c-50.667 0 -76 42.667 -76 128c0 82.667 24.667 124 74 124z" />
    <glyph glyph-name="copyright" unicode="&#xa9;" horiz-adv-x="1643" 
d="M1586 676c0 -232 -76.667 -420.332 -230 -564.999s-331.333 -217 -534 -217c-210 0 -389.833 74.5 -539.5 223.5s-224.5 328.5 -224.5 538.5c0 209.333 74.833 388.666 224.5 537.999s329.5 224 539.5 224c144.667 0 278 -37.833 400 -113.5s213.167 -172.5 273.5 -290.5
s90.5 -230.667 90.5 -338zM1493 640.001c0 204.667 -67.5 370.5 -202.5 497.5s-291.167 190.5 -468.5 190.5c-185.333 0 -343.5 -65.5 -474.5 -196.5s-196.5 -289.167 -196.5 -474.5c0 -184 65.667 -341.667 197 -473s289.333 -197 474 -197
c192 0 351.833 67.833 479.5 203.5s191.5 285.5 191.5 449.5zM1154 853.001l-98 -27c-47.333 110.667 -121.666 166 -222.999 166c-75.333 0 -141 -27.5 -197 -82.5s-84 -135.833 -84 -242.5c0 -100.667 23.667 -185.334 71 -254.001s113.333 -103 198 -103
c62 0 111.833 15.833 149.5 47.5s71.167 84.167 100.5 157.5l90 -31c-32 -100 -79 -168.833 -141 -206.5s-127 -56.5 -195 -56.5c-68.667 0 -132.834 18.5 -192.501 55.5s-106.167 90.833 -139.5 161.5s-50 144.667 -50 222c0 106.667 33.833 202.334 101.5 287.001
s161.5 127 281.5 127c77.333 0 141.5 -17.833 192.5 -53.5s96.167 -91.5 135.5 -167.5z" />
    <glyph glyph-name="ordfeminine" unicode="&#xaa;" horiz-adv-x="555" 
d="M84 1358c66.667 40 127.668 60 183.001 60c66.667 0 118.667 -19 156 -57s56 -86.333 56 -145v-351c0 -19.333 7.66699 -29 23 -29c8 0 24 6.66699 48 20v-101c-31.333 -8.66699 -56 -13 -74 -13c-56 0 -89.333 24.667 -100 74c-20.667 -26 -43.5 -45.667 -68.5 -59
s-52.167 -20 -81.5 -20c-50.667 0 -94.834 19.167 -132.501 57.5s-56.5 86.5 -56.5 144.5c0 72 27.5 124.333 82.5 157s139.833 55.334 254.5 68.001v38c0 35.333 -10.833 63.666 -32.5 84.999s-48.167 32 -79.5 32c-42.667 0 -102 -28.667 -178 -86v125zM374.001 1076
c-89.333 -14 -149.501 -29.8311 -180.501 -47.498s-46.5 -46.834 -46.5 -87.501c0 -32.667 9.83301 -58.334 29.5 -77.001s42.834 -28 69.501 -28c38 0 68.833 16 92.5 48s35.5 69.667 35.5 113v79z" />
    <glyph glyph-name="guillemotleft" unicode="&#xab;" horiz-adv-x="597" 
d="M201 789h102l-102 -315l102 -317h-102l-108 317zM454 789h103l-103 -315l103 -317h-103l-107 317z" />
    <glyph glyph-name="logicalnot" unicode="&#xac;" horiz-adv-x="1365" 
d="M142 964h1080v-595h-106v487h-974v108z" />
    <glyph glyph-name="sfthyphen" unicode="&#xad;" horiz-adv-x="576" 
d="M67 550h443v-125h-443v125z" />
    <glyph glyph-name="registered" unicode="&#xae;" horiz-adv-x="1643" 
d="M1586 676c0 -232 -76.667 -420.332 -230 -564.999s-331.333 -217 -534 -217c-210 0 -389.833 74.5 -539.5 223.5s-224.5 328.5 -224.5 538.5c0 209.333 74.833 388.666 224.5 537.999s329.5 224 539.5 224c144.667 0 278 -37.833 400 -113.5s213.167 -172.5 273.5 -290.5
s90.5 -230.667 90.5 -338zM1493 640.001c0 204.667 -67.5 370.5 -202.5 497.5s-291.167 190.5 -468.5 190.5c-185.333 0 -343.5 -65.5 -474.5 -196.5s-196.5 -289.167 -196.5 -474.5c0 -184 65.667 -341.667 197 -473s289.333 -197 474 -197
c192 0 351.833 67.833 479.5 203.5s191.5 285.5 191.5 449.5zM512 1051l333.999 -0.000976562c80.667 0 146.334 -18 197.001 -54s76 -89 76 -159c0 -52.667 -17.333 -101 -52 -145s-96.667 -71.667 -186 -83c58.667 -22.667 101.5 -51.667 128.5 -87
s73.167 -127.333 138.5 -276h-120c-64.667 146.667 -117.167 241.334 -157.5 284.001s-110.833 64 -211.5 64h-45v-348h-102v804zM613.999 680l131.999 -0.000976562c106.667 0 175.834 13.333 207.501 40s47.5 64.334 47.5 113.001c0 50.667 -17.5 86 -52.5 106
s-97.167 30 -186.5 30h-148v-289z" />
    <glyph glyph-name="macron" unicode="&#xaf;" horiz-adv-x="1024" 
d="M-12 1651h1048v-102h-1048v102z" />
    <glyph glyph-name="degree" unicode="&#xb0;" horiz-adv-x="811" 
d="M694 1140c0 -84.667 -28.667 -154.333 -86 -209s-124.666 -82 -201.999 -82c-78.667 0 -146.334 27.333 -203.001 82s-85 121.667 -85 201c0 78 28.167 145.167 84.5 201.5s124.166 84.5 203.499 84.5c84.667 0 153.834 -29 207.501 -87s80.5 -121.667 80.5 -191z
M610 1130c0 60.667 -20.168 110.668 -60.501 150.001s-88.166 59 -143.499 59c-56.667 0 -105 -20 -145 -60s-60 -88 -60 -144c0 -56.667 20 -104.834 60 -144.501s88.333 -59.5 145 -59.5c58 0 106.5 20.667 145.5 62s58.5 87 58.5 137z" />
    <glyph glyph-name="plusminus" unicode="&#xb1;" horiz-adv-x="1365" 
d="M142 875h485v488h108v-488h489v-108h-489v-485h-108v485h-485v108zM142 108h1082v-108h-1082v108z" />
    <glyph glyph-name="twosuperior" unicode="&#xb2;" horiz-adv-x="640" 
d="M565 708l-0.00195312 -103.001h-458v103c0 65.333 13.167 118 39.5 158s79.5 92 159.5 156c56 44.667 92 78 108 100s24 44.667 24 68c0 30.667 -12.167 56.834 -36.5 78.501s-55.166 32.5 -92.499 32.5c-38 0 -88 -19.667 -150 -59
c-7.33301 -5.33301 -12.333 -8.66602 -15 -9.99902v118c60.667 34.667 121 52 181 52c66.667 0 120.834 -18.5 162.501 -55.5s62.5 -86.167 62.5 -147.5c0 -50.667 -13.5 -92.834 -40.5 -126.501s-81.167 -83.167 -162.5 -148.5c-86.667 -68.667 -130 -130 -130 -184v-32
h348z" />
    <glyph glyph-name="threesuperior" unicode="&#xb3;" horiz-adv-x="640" 
d="M125 1356c58.667 30 114.666 45 167.999 45c59.333 0 109.333 -16.333 150 -49s61 -81 61 -145c0 -43.333 -10.333 -78 -31 -104s-53.667 -51.667 -99 -77c56 -15.333 98 -39 126 -71s42 -72.333 42 -121c0 -69.333 -25 -127 -75 -173s-110.667 -69 -182 -69
c-53.333 0 -106.666 14 -159.999 42v125c50.667 -42.667 101.667 -64 153 -64c43.333 0 79.333 13.833 108 41.5s43 62.5 43 104.5c0 40 -13.667 71.167 -41 93.5s-64.333 33.5 -111 33.5h-77v95h36c48.667 0 87 11.333 115 34s42 53 42 91c0 32.667 -10.667 59.5 -32 80.5
s-48 31.5 -80 31.5c-53.333 0 -105.333 -22 -156 -66v122z" />
    <glyph glyph-name="acute" unicode="&#xb4;" horiz-adv-x="683" 
d="M375 1383h149l-215 -293h-84z" />
    <glyph glyph-name="mu" unicode="&#xb5;" horiz-adv-x="917" 
d="M139 1063l119.004 -0.000976562v-759c0 -60 3.33301 -102.667 10 -128s22.167 -47.666 46.5 -66.999s55.166 -29 92.499 -29c50.667 0 96.5 15.5 137.5 46.5s70 70.333 87 118s25.5 122.5 25.5 224.5v594h121v-1063h-121v104c-39.333 -43.333 -79.333 -75.833 -120 -97.5
s-82.334 -32.5 -125.001 -32.5c-20.667 0 -43.834 3 -69.501 9s-53.834 14.667 -84.501 26v-417h-119v1471z" />
    <glyph glyph-name="paragraph" unicode="&#xb6;" horiz-adv-x="1323" 
d="M1267 1395v-129.999h-196v-1709h-131v1709h-263v-1709h-131v1002c-86 0 -159.5 13.167 -220.5 39.5s-114.333 73.166 -160 140.499s-68.5 147 -68.5 239c0 129.333 44.167 231.333 132.5 306s203.833 112 346.5 112h691z" />
    <glyph glyph-name="cedilla" unicode="&#xb8;" horiz-adv-x="683" 
d="M489 42v-165h49c49.333 0 90.5 -15 123.5 -45s49.5 -66.667 49.5 -110c0 -52.667 -22.5 -97 -67.5 -133s-100.167 -54 -165.5 -54c-48.667 0 -97.667 8.66699 -147 26v106c48.667 -26.667 94 -40 136 -40c35.333 0 65.666 7.83301 90.999 23.5s38 35.5 38 59.5
c0 22.667 -10.167 40 -30.5 52s-42.166 18 -65.499 18h-111v262h100z" />
    <glyph glyph-name="onesuperior" unicode="&#xb9;" horiz-adv-x="640" 
d="M428 1395v-788h-106v544h-132v90h40c27.333 0 51.5 9.33301 72.5 28s31.5 43 31.5 73v53h94z" />
    <glyph glyph-name="ordmasculine" unicode="&#xba;" horiz-adv-x="576" 
d="M291 1418c69.333 0 129.168 -30.333 179.501 -91s75.5 -143.334 75.5 -248.001c0 -101.333 -24.333 -183.666 -73 -246.999s-110.334 -95 -185.001 -95c-76.667 0 -138.667 32 -186 96s-71 145.667 -71 245c0 98.667 23.833 180 71.5 244s110.5 96 188.5 96z
M296.002 1319c-50 0 -88.334 -22.5 -115.001 -67.5s-40 -106.167 -40 -183.5c0 -66 13 -121.167 39 -165.5s62 -66.5 108 -66.5s81.833 22 107.5 66s38.5 105.667 38.5 185c0 67.333 -12.667 122.833 -38 166.5s-58.666 65.5 -99.999 65.5z" />
    <glyph glyph-name="guillemotright" unicode="&#xbb;" horiz-adv-x="597" 
d="M397 157h-102l102 315l-102 317h102l108 -317zM143 157h-102l102 315l-102 317h102l108 -317z" />
    <glyph glyph-name="onequarter" unicode="&#xbc;" horiz-adv-x="1493" 
d="M1241 1395l-835 -1483h-112l823 1483h124zM435 1395v-787h-106v544h-132v90h40c27.333 0 51.5 9.33301 72.5 28s31.5 43 31.5 73v52h94zM935 256l306 462h107v-462h99v-100h-99v-226h-107v226h-306v100zM1241 542l-201 -286h201v286z" />
    <glyph glyph-name="onehalf" unicode="&#xbd;" horiz-adv-x="1493" 
d="M1241 1395l-835 -1483h-112l823 1483h124zM435 1395v-787h-106v544h-132v90h40c27.333 0 51.5 9.33301 72.5 28s31.5 43 31.5 73v52h94zM1418 33l-0.000976562 -102.002h-458v102c0 66 13.167 118.833 39.5 158.5s79.833 91.834 160.5 156.501
c56.667 45.333 92.667 79 108 101s23 44.333 23 67c0 30 -12.167 55.833 -36.5 77.5s-55.166 32.5 -92.499 32.5c-38 0 -87.667 -19.667 -149 -59c-8 -5.33301 -13.333 -8.66602 -16 -9.99902v118c60.667 34.667 121.667 52 183 52c66.667 0 120.5 -18.833 161.5 -56.5
s61.5 -86.5 61.5 -146.5c0 -50 -13.333 -92 -40 -126s-81 -83.333 -163 -148c-86.667 -68.667 -130 -130 -130 -184v-33h348z" />
    <glyph glyph-name="threequarters" unicode="&#xbe;" horiz-adv-x="1493" 
d="M133 1358c58.667 30 114.999 45.001 168.999 45.001c62.667 0 113.334 -17.333 152.001 -52s58 -82.334 58 -143.001c0 -37.333 -10.833 -71 -32.5 -101s-54.167 -56.333 -97.5 -79c56 -15.333 98 -39 126 -71s42 -72.333 42 -121c0 -70 -25 -127.833 -75 -173.5
s-110.667 -68.5 -182 -68.5c-50.667 0 -104 13.667 -160 41v126c50.667 -42.667 101.667 -64 153 -64c43.333 0 79.333 13.833 108 41.5s43 62.167 43 103.5c0 40 -13.667 71.167 -41 93.5s-64.333 33.5 -111 33.5h-77v95h36c48.667 0 87 11.5 115 34.5s42 53.5 42 91.5
c0 32.667 -10.667 59.5 -32 80.5s-48 31.5 -80 31.5c-52 0 -104 -22.333 -156 -67v123zM1241 1395l-835 -1483h-112l823 1483h124zM935.999 256.001l305 462h107v-462h100v-100h-100v-226h-107v226h-305v100zM1241 542.001l-201 -286h201v286z" />
    <glyph glyph-name="questiondown" unicode="&#xbf;" horiz-adv-x="853" 
d="M493 720c-50 0 -75 41.333 -75 124c0 86 24.667 129 74 129c48.667 0 73 -42 73 -126c0 -84.667 -24 -127 -72 -127zM739 -357c-117.333 -72.667 -226.668 -109.001 -328.001 -109.001c-104 0 -191.167 32.333 -261.5 97s-105.5 147.334 -105.5 248.001
c0 70 16.833 128.5 50.5 175.5s102.5 116.167 206.5 207.5c51.333 44.667 85.333 84.167 102 118.5s25 79.833 25 136.5v84h125v-71c0 -88 -13.333 -156.667 -40 -206s-84 -111.333 -172 -186c-73.333 -62.667 -119.5 -111 -138.5 -145s-28.5 -70.333 -28.5 -109
c0 -64 23.333 -117.833 70 -161.5s107.334 -65.5 182.001 -65.5c49.333 0 96 9.5 140 28.5s101.667 52.5 173 100.5v-143z" />
    <glyph glyph-name="Agrave" unicode="&#xc0;" horiz-adv-x="896" 
d="M378 1395h134l389 -1395h-152l-118 482h-371l-117 -482h-149zM443 1225l-155 -630h313zM269 1786h147l150 -293h-83z" />
    <glyph glyph-name="Aacute" unicode="&#xc1;" horiz-adv-x="896" 
d="M378 1395h134l389 -1395h-152l-118 482h-371l-117 -482h-149zM443 1225l-155 -630h313zM514 1785h149l-215 -293h-84z" />
    <glyph glyph-name="Acircumflex" unicode="&#xc2;" horiz-adv-x="896" 
d="M378 1395h134l389 -1395h-152l-118 482h-371l-117 -482h-149zM443 1225l-155 -630h313zM371 1785h192l148 -293h-86l-159 222l-161 -222h-81z" />
    <glyph glyph-name="Atilde" unicode="&#xc3;" horiz-adv-x="896" 
d="M378 1395h134l389 -1395h-152l-118 482h-371l-117 -482h-149zM443 1225l-155 -630h313zM190 1537c3.33301 144.667 56 217 158 217c49.333 0 96 -25.333 140 -76c30 -34.667 56.333 -52 79 -52c40 0 60 39.333 60 118h95c0 -147.333 -51.333 -221 -154 -221
c-46.667 0 -94.667 26.333 -144 79c-32 34 -58 51 -78 51c-40.667 0 -61 -38.667 -61 -116h-95z" />
    <glyph glyph-name="Adieresis" unicode="&#xc4;" horiz-adv-x="896" 
d="M378 1395h134l389 -1395h-152l-118 482h-371l-117 -482h-149zM443 1225l-155 -630h313zM306 1765c49.333 0 74 -42 74 -126c0 -84.667 -25 -127 -75 -127c-48 0 -72 41 -72 123c0 86.667 24.333 130 73 130zM604 1763c50 0 75 -41.333 75 -124
c0 -85.333 -24.333 -128 -73 -128c-50.667 0 -76 42.667 -76 128c0 82.667 24.667 124 74 124z" />
    <glyph glyph-name="Aring" unicode="&#xc5;" horiz-adv-x="896" 
d="M526 1345l375.001 -1345h-152l-118 482h-371l-117 -482h-149l370 1343c-22.667 16 -39.834 34.5 -51.501 55.5s-17.5 44.5 -17.5 70.5c0 40.667 14.5 75.5 43.5 104.5s64.167 43.5 105.5 43.5c40.667 0 75.5 -14.5 104.5 -43.5s43.5 -63.833 43.5 -104.5
c0 -25.333 -5.5 -48.333 -16.5 -69s-27.5 -39 -49.5 -55zM444.001 1545c-20 0 -37.499 -7.16895 -52.499 -21.502s-22.5 -32.166 -22.5 -53.499c0 -20.667 7.16699 -38.334 21.5 -53.001s32.166 -22 53.499 -22c20.667 0 38.334 7.33301 53.001 22s22 32.334 22 53.001
s-7.33301 38.334 -22 53.001s-32.334 22 -53.001 22zM443.002 1225l-155 -630h313z" />
    <glyph glyph-name="AE" unicode="&#xc6;" horiz-adv-x="1472" 
d="M499 1395h885v-114h-540v-495h508v-115h-508v-553h540v-118h-673v671h-336l-234 -671h-149zM588 1281l-173 -495h296v495h-123z" />
    <glyph glyph-name="Ccedilla" unicode="&#xc7;" 
d="M528 -22l-0.00195312 -101.001h49c50 0 91.333 -14.833 124 -44.5s49 -66.5 49 -110.5c0 -52.667 -22.333 -97 -67 -133s-100 -54 -166 -54c-48.667 0 -97.667 8.66699 -147 26v106c48.667 -26.667 94 -40 136 -40c34 0 64 7.66699 90 23s39 35.333 39 60
c0 22.667 -10.167 40 -30.5 52s-42.166 18 -65.499 18h-110v210c-124.667 35.333 -215.834 118.333 -273.501 249s-86.5 284.667 -86.5 462c0 128 18.5 249.5 55.5 364.5s92.333 202.5 166 262.5s155.834 90 246.501 90c85.333 0 169 -28.333 251 -85v-162
c-88.667 82 -170.667 123 -246 123c-102 0 -183 -53.667 -243 -161s-90 -259.666 -90 -456.999c0 -165.333 28.833 -302.333 86.5 -411s136.834 -163 237.501 -163c77.333 0 162.333 42.333 255 127v-165c-98 -58 -179 -87 -243 -87c-4 0 -9.66699 0.333008 -17 1z" />
    <glyph glyph-name="Egrave" unicode="&#xc8;" horiz-adv-x="896" 
d="M130 1395h677v-118h-542v-491h512v-116h-512v-554h542v-116h-677v1395zM286 1786h147l150 -293h-83z" />
    <glyph glyph-name="Eacute" unicode="&#xc9;" horiz-adv-x="896" 
d="M130 1395h677v-118h-542v-491h512v-116h-512v-554h542v-116h-677v1395zM506 1785h149l-215 -293h-84z" />
    <glyph glyph-name="Ecircumflex" unicode="&#xca;" horiz-adv-x="896" 
d="M130 1395h677v-118h-542v-491h512v-116h-512v-554h542v-116h-677v1395zM376 1785h192l148 -293h-86l-159 222l-161 -222h-81z" />
    <glyph glyph-name="Edieresis" unicode="&#xcb;" horiz-adv-x="896" 
d="M130 1395h677v-118h-542v-491h512v-116h-512v-554h542v-116h-677v1395zM322 1765c49.333 0 74 -42 74 -126c0 -84.667 -25 -127 -75 -127c-48 0 -72 41 -72 123c0 86.667 24.333 130 73 130zM620 1763c50 0 75 -41.333 75 -124c0 -85.333 -24.333 -128 -73 -128
c-50.667 0 -76 42.667 -76 128c0 82.667 24.667 124 74 124z" />
    <glyph glyph-name="Igrave" unicode="&#xcc;" horiz-adv-x="405" 
d="M133 1395h136v-1395h-136v1395zM22 1786h147l150 -293h-83z" />
    <glyph glyph-name="Iacute" unicode="&#xcd;" horiz-adv-x="405" 
d="M133 1395h136v-1395h-136v1395zM261 1785h149l-215 -293h-84z" />
    <glyph glyph-name="Icircumflex" unicode="&#xce;" horiz-adv-x="405" 
d="M133 1395h136v-1395h-136v1395zM106 1785h192l148 -293h-86l-159 222l-161 -222h-81z" />
    <glyph glyph-name="Idieresis" unicode="&#xcf;" horiz-adv-x="405" 
d="M133 1395h136v-1395h-136v1395zM53 1765c49.333 0 74 -42 74 -126c0 -84.667 -25 -127 -75 -127c-48 0 -72 41 -72 123c0 86.667 24.333 130 73 130zM351 1763c50 0 75 -41.333 75 -124c0 -85.333 -24.333 -128 -73 -128c-50.667 0 -76 42.667 -76 128
c0 82.667 24.667 124 74 124z" />
    <glyph glyph-name="Eth" unicode="&#xd0;" horiz-adv-x="1003" 
d="M125 1395h322c163.333 0 285 -60.667 365 -182s120 -297.333 120 -528c0 -211.333 -42 -378.333 -126 -501s-203.667 -184 -359 -184h-322v637h-136v120h136v638zM262 1274v-517h264v-120h-264v-517h185c122 0 209.667 51 263 153s80 254.333 80 457
c0 176.667 -27.833 311.5 -83.5 404.5s-142.167 139.5 -259.5 139.5h-185z" />
    <glyph glyph-name="Ntilde" unicode="&#xd1;" horiz-adv-x="1024" 
d="M265 1395l412.999 -929.001l108 -245c-7.33301 250.667 -11 380.334 -11 389.001v785h121v-1395h-136l-400 895c-11.333 25.333 -32.666 79.333 -63.999 162l-48 123c-2 -28 -3 -44.333 -3 -49l5 -108l1 -155l-3 -60v-808h-121v1395h138zM254.999 1537
c3.33301 144.667 56 217 158 217c49.333 0 96 -25.333 140 -76c30 -34.667 56.333 -52 79 -52c40 0 60 39.333 60 118h95c0 -147.333 -51.333 -221 -154 -221c-46.667 0 -94.667 26.333 -144 79c-32 34 -58 51 -78 51c-40.667 0 -61 -38.667 -61 -116h-95z" />
    <glyph glyph-name="Ograve" unicode="&#xd2;" horiz-adv-x="1045" 
d="M528 1418c134.667 0 243.667 -65 327 -195s125 -312.667 125 -548c0 -211.333 -43 -380.333 -129 -507s-195.333 -190 -328 -190c-135.333 0 -245.333 62.5 -330 187.5s-127 298.167 -127 519.5c0 225.333 41 403.833 123 535.5s195 197.5 339 197.5zM534 1294
c-112 0 -194.5 -56.832 -247.5 -170.499s-79.5 -262.5 -79.5 -446.5c0 -174 27.667 -312.833 83 -416.5s132 -155.5 230 -155.5c99.333 0 177 53.333 233 160s84 251.667 84 435c0 199.333 -29.5 348.166 -88.5 446.499s-130.5 147.5 -214.5 147.5zM328 1786h147l150 -293
h-83z" />
    <glyph glyph-name="Oacute" unicode="&#xd3;" horiz-adv-x="1045" 
d="M528 1418c134.667 0 243.667 -65 327 -195s125 -312.667 125 -548c0 -211.333 -43 -380.333 -129 -507s-195.333 -190 -328 -190c-135.333 0 -245.333 62.5 -330 187.5s-127 298.167 -127 519.5c0 225.333 41 403.833 123 535.5s195 197.5 339 197.5zM534 1294
c-112 0 -194.5 -56.832 -247.5 -170.499s-79.5 -262.5 -79.5 -446.5c0 -174 27.667 -312.833 83 -416.5s132 -155.5 230 -155.5c99.333 0 177 53.333 233 160s84 251.667 84 435c0 199.333 -29.5 348.166 -88.5 446.499s-130.5 147.5 -214.5 147.5zM580 1785h149l-215 -293
h-84z" />
    <glyph glyph-name="Ocircumflex" unicode="&#xd4;" horiz-adv-x="1045" 
d="M528 1418c134.667 0 243.667 -65 327 -195s125 -312.667 125 -548c0 -211.333 -43 -380.333 -129 -507s-195.333 -190 -328 -190c-135.333 0 -245.333 62.5 -330 187.5s-127 298.167 -127 519.5c0 225.333 41 403.833 123 535.5s195 197.5 339 197.5zM534 1294
c-112 0 -194.5 -56.832 -247.5 -170.499s-79.5 -262.5 -79.5 -446.5c0 -174 27.667 -312.833 83 -416.5s132 -155.5 230 -155.5c99.333 0 177 53.333 233 160s84 251.667 84 435c0 199.333 -29.5 348.166 -88.5 446.499s-130.5 147.5 -214.5 147.5zM425 1785h192l148 -293
h-86l-159 222l-161 -222h-81z" />
    <glyph glyph-name="Otilde" unicode="&#xd5;" horiz-adv-x="1045" 
d="M528 1418c134.667 0 243.667 -65 327 -195s125 -312.667 125 -548c0 -211.333 -43 -380.333 -129 -507s-195.333 -190 -328 -190c-135.333 0 -245.333 62.5 -330 187.5s-127 298.167 -127 519.5c0 225.333 41 403.833 123 535.5s195 197.5 339 197.5zM534 1294
c-112 0 -194.5 -56.832 -247.5 -170.499s-79.5 -262.5 -79.5 -446.5c0 -174 27.667 -312.833 83 -416.5s132 -155.5 230 -155.5c99.333 0 177 53.333 233 160s84 251.667 84 435c0 199.333 -29.5 348.166 -88.5 446.499s-130.5 147.5 -214.5 147.5zM256 1537
c3.33301 144.667 56 217 158 217c49.333 0 96 -25.333 140 -76c30 -34.667 56.333 -52 79 -52c40 0 60 39.333 60 118h95c0 -147.333 -51.333 -221 -154 -221c-46.667 0 -94.667 26.333 -144 79c-32 34 -58 51 -78 51c-40.667 0 -61 -38.667 -61 -116h-95z" />
    <glyph glyph-name="Odieresis" unicode="&#xd6;" horiz-adv-x="1045" 
d="M528 1418c134.667 0 243.667 -65 327 -195s125 -312.667 125 -548c0 -211.333 -43 -380.333 -129 -507s-195.333 -190 -328 -190c-135.333 0 -245.333 62.5 -330 187.5s-127 298.167 -127 519.5c0 225.333 41 403.833 123 535.5s195 197.5 339 197.5zM534 1294
c-112 0 -194.5 -56.832 -247.5 -170.499s-79.5 -262.5 -79.5 -446.5c0 -174 27.667 -312.833 83 -416.5s132 -155.5 230 -155.5c99.333 0 177 53.333 233 160s84 251.667 84 435c0 199.333 -29.5 348.166 -88.5 446.499s-130.5 147.5 -214.5 147.5zM372 1765
c49.333 0 74 -42 74 -126c0 -84.667 -25 -127 -75 -127c-48 0 -72 41 -72 123c0 86.667 24.333 130 73 130zM670 1763c50 0 75 -41.333 75 -124c0 -85.333 -24.333 -128 -73 -128c-50.667 0 -76 42.667 -76 128c0 82.667 24.667 124 74 124z" />
    <glyph glyph-name="multiply" unicode="&#xd7;" horiz-adv-x="1365" 
d="M191 1083l76 76l417 -419l415 419l76 -76l-415 -419l415 -414l-76 -75l-415 413l-417 -413l-76 75l416 414z" />
    <glyph glyph-name="Oslash" unicode="&#xd8;" horiz-adv-x="1045" 
d="M811 1283c112.667 -134 169.001 -336.67 169.001 -608.003c0 -141.333 -19 -262.666 -57 -363.999s-91.333 -182.166 -160 -242.499s-148.667 -90.5 -240 -90.5c-71.333 0 -139.333 20.333 -204 61l-54 -135h-110l81 206c-42.667 44.667 -81.667 115 -117 211
s-53 217.667 -53 365c0 226.667 41.5 405.334 124.5 536.001s190.167 196 321.5 196c79.333 0 150.666 -20 213.999 -60l52 133h115zM293.001 254.997l385 980.001c-46 39.333 -96.667 59 -152 59c-102.667 0 -181.5 -54.833 -236.5 -164.5s-82.5 -260.5 -82.5 -452.5
c0 -174.667 28.667 -315.334 86 -422.001zM754.001 1139l-386.999 -977.999c41.333 -37.333 93 -56 155 -56c99.333 0 176.666 53.667 231.999 161s83 252 83 434c0 181.333 -27.667 327.666 -83 438.999z" />
    <glyph glyph-name="Ugrave" unicode="&#xd9;" horiz-adv-x="960" 
d="M108 1395h134.999v-1004c0 -90 21.167 -161.333 63.5 -214s101.5 -79 177.5 -79c72.667 0 130.834 25.333 174.501 76s65.5 123 65.5 217v1004h137v-1004c0 -126 -34.5 -226.333 -103.5 -301s-160.833 -112 -275.5 -112c-116.667 0 -208.167 40.167 -274.5 120.5
s-99.5 187.5 -99.5 321.5v975zM292.999 1786h147l150 -293h-83z" />
    <glyph glyph-name="Uacute" unicode="&#xda;" horiz-adv-x="960" 
d="M108 1395h134.999v-1004c0 -90 21.167 -161.333 63.5 -214s101.5 -79 177.5 -79c72.667 0 130.834 25.333 174.501 76s65.5 123 65.5 217v1004h137v-1004c0 -126 -34.5 -226.333 -103.5 -301s-160.833 -112 -275.5 -112c-116.667 0 -208.167 40.167 -274.5 120.5
s-99.5 187.5 -99.5 321.5v975zM537.999 1785h149l-215 -293h-84z" />
    <glyph glyph-name="Ucircumflex" unicode="&#xdb;" horiz-adv-x="960" 
d="M108 1395h134.999v-1004c0 -90 21.167 -161.333 63.5 -214s101.5 -79 177.5 -79c72.667 0 130.834 25.333 174.501 76s65.5 123 65.5 217v1004h137v-1004c0 -126 -34.5 -226.333 -103.5 -301s-160.833 -112 -275.5 -112c-116.667 0 -208.167 40.167 -274.5 120.5
s-99.5 187.5 -99.5 321.5v975zM382.999 1785h192l148 -293h-86l-159 222l-161 -222h-81z" />
    <glyph glyph-name="Udieresis" unicode="&#xdc;" horiz-adv-x="960" 
d="M108 1395h134.999v-1004c0 -90 21.167 -161.333 63.5 -214s101.5 -79 177.5 -79c72.667 0 130.834 25.333 174.501 76s65.5 123 65.5 217v1004h137v-1004c0 -126 -34.5 -226.333 -103.5 -301s-160.833 -112 -275.5 -112c-116.667 0 -208.167 40.167 -274.5 120.5
s-99.5 187.5 -99.5 321.5v975zM329.999 1765c49.333 0 74 -42 74 -126c0 -84.667 -25 -127 -75 -127c-48 0 -72 41 -72 123c0 86.667 24.333 130 73 130zM627.999 1763c50 0 75 -41.333 75 -124c0 -85.333 -24.333 -128 -73 -128c-50.667 0 -76 42.667 -76 128
c0 82.667 24.667 124 74 124z" />
    <glyph glyph-name="Yacute" unicode="&#xdd;" 
d="M8 1395h158l256 -617l245 617h156l-335 -756v-639h-137v639zM482 1785h149l-215 -293h-84z" />
    <glyph glyph-name="Thorn" unicode="&#xde;" horiz-adv-x="960" 
d="M278 1080h140.002c115.333 0 205.666 -8.33301 270.999 -25s119.666 -56 162.999 -118s65 -142 65 -240c0 -126 -32.5 -220.667 -97.5 -284s-162.833 -95 -293.5 -95h-248v-318h-136v1395h136v-315zM278.002 953l0.000976562 -516h248
c87.333 0 150.666 21.333 189.999 64s59 108 59 196c0 76.667 -21 138.5 -63 185.5s-104 70.5 -186 70.5h-248z" />
    <glyph glyph-name="germandbls" unicode="&#xdf;" horiz-adv-x="896" 
d="M121 0l-0.000976562 601c0 291.333 3.66699 473 11 545s40 135.333 98 190s129.333 82 214 82c84 0 155 -28.833 213 -86.5s87 -131.167 87 -220.5c0 -149.333 -77.333 -256.666 -232 -321.999c109.333 -9.33301 191.333 -48.5 246 -117.5s82 -154.5 82 -256.5
c0 -121.333 -36 -224.5 -108 -309.5s-161.333 -127.5 -268 -127.5c-44 0 -84.667 7.33301 -122 22v120c40 -18.667 79.333 -28 118 -28c74.667 0 136.5 30.5 185.5 91.5s73.5 136.833 73.5 227.5c0 95.333 -27.833 170 -83.5 224s-126.5 81 -212.5 81h-81v112
c73.333 0 137.333 20.167 192 60.5s82 104.166 82 191.499c0 68 -17.667 122 -53 162s-81 60 -137 60c-57.333 0 -102.166 -21.667 -134.499 -65s-48.5 -101.333 -48.5 -174v-1063h-122z" />
    <glyph glyph-name="agrave" unicode="&#xe0;" 
d="M139 890c102 56.667 187.667 85.002 257 85.002c100 0 175.667 -29 227 -87c51.333 -58.667 77 -137.334 77 -236.001v-503c0 -36.667 17.333 -55 52 -55c18 0 36 5 54 15v-109c-32 -14.667 -64.667 -22 -98 -22c-86.667 0 -131.334 51 -134.001 153
c-32.667 -50.667 -69 -88.834 -109 -114.501s-83.333 -38.5 -130 -38.5c-76 0 -139.667 27.667 -191 83s-77 123 -77 203c0 84.667 31.833 155 95.5 211s200.834 94 411.501 114v82c0 54 -17.5 98.5 -52.5 133.5s-78.5 52.5 -130.5 52.5c-74 0 -158 -36.667 -252 -110v143z
M574 491.002c-164.667 -20 -268.833 -48.167 -312.5 -84.5s-65.5 -82.5 -65.5 -138.5c0 -50.667 16 -92.5 48 -125.5s72.333 -49.5 121 -49.5c60.667 0 110.667 25.333 150 76s59 115.667 59 195v127zM254.001 1384h147l150 -293h-83z" />
    <glyph glyph-name="aacute" unicode="&#xe1;" 
d="M139 890c102 56.667 187.667 85.002 257 85.002c100 0 175.667 -29 227 -87c51.333 -58.667 77 -137.334 77 -236.001v-503c0 -36.667 17.333 -55 52 -55c18 0 36 5 54 15v-109c-32 -14.667 -64.667 -22 -98 -22c-86.667 0 -131.334 51 -134.001 153
c-32.667 -50.667 -69 -88.834 -109 -114.501s-83.333 -38.5 -130 -38.5c-76 0 -139.667 27.667 -191 83s-77 123 -77 203c0 84.667 31.833 155 95.5 211s200.834 94 411.501 114v82c0 54 -17.5 98.5 -52.5 133.5s-78.5 52.5 -130.5 52.5c-74 0 -158 -36.667 -252 -110v143z
M574 491.002c-164.667 -20 -268.833 -48.167 -312.5 -84.5s-65.5 -82.5 -65.5 -138.5c0 -50.667 16 -92.5 48 -125.5s72.333 -49.5 121 -49.5c60.667 0 110.667 25.333 150 76s59 115.667 59 195v127zM474.001 1383h149l-215 -293h-84z" />
    <glyph glyph-name="acircumflex" unicode="&#xe2;" 
d="M139 890c102 56.667 187.667 85.002 257 85.002c100 0 175.667 -29 227 -87c51.333 -58.667 77 -137.334 77 -236.001v-503c0 -36.667 17.333 -55 52 -55c18 0 36 5 54 15v-109c-32 -14.667 -64.667 -22 -98 -22c-86.667 0 -131.334 51 -134.001 153
c-32.667 -50.667 -69 -88.834 -109 -114.501s-83.333 -38.5 -130 -38.5c-76 0 -139.667 27.667 -191 83s-77 123 -77 203c0 84.667 31.833 155 95.5 211s200.834 94 411.501 114v82c0 54 -17.5 98.5 -52.5 133.5s-78.5 52.5 -130.5 52.5c-74 0 -158 -36.667 -252 -110v143z
M574 491.002c-164.667 -20 -268.833 -48.167 -312.5 -84.5s-65.5 -82.5 -65.5 -138.5c0 -50.667 16 -92.5 48 -125.5s72.333 -49.5 121 -49.5c60.667 0 110.667 25.333 150 76s59 115.667 59 195v127zM344.001 1383h192l148 -293h-86l-159 222l-161 -222h-81z" />
    <glyph glyph-name="atilde" unicode="&#xe3;" 
d="M139 890c102 56.667 187.667 85.002 257 85.002c100 0 175.667 -29 227 -87c51.333 -58.667 77 -137.334 77 -236.001v-503c0 -36.667 17.333 -55 52 -55c18 0 36 5 54 15v-109c-32 -14.667 -64.667 -22 -98 -22c-86.667 0 -131.334 51 -134.001 153
c-32.667 -50.667 -69 -88.834 -109 -114.501s-83.333 -38.5 -130 -38.5c-76 0 -139.667 27.667 -191 83s-77 123 -77 203c0 84.667 31.833 155 95.5 211s200.834 94 411.501 114v82c0 54 -17.5 98.5 -52.5 133.5s-78.5 52.5 -130.5 52.5c-74 0 -158 -36.667 -252 -110v143z
M574 491.002c-164.667 -20 -268.833 -48.167 -312.5 -84.5s-65.5 -82.5 -65.5 -138.5c0 -50.667 16 -92.5 48 -125.5s72.333 -49.5 121 -49.5c60.667 0 110.667 25.333 150 76s59 115.667 59 195v127zM150.001 1135c3.33301 144.667 56 217 158 217
c49.333 0 96 -25.333 140 -76c30 -34.667 56.333 -52 79 -52c40 0 60 39.333 60 118h95c0 -147.333 -51.333 -221 -154 -221c-46.667 0 -94.667 26.333 -144 79c-32 34 -58 51 -78 51c-40.667 0 -61 -38.667 -61 -116h-95z" />
    <glyph glyph-name="adieresis" unicode="&#xe4;" 
d="M139 890c102 56.667 187.667 85.002 257 85.002c100 0 175.667 -29 227 -87c51.333 -58.667 77 -137.334 77 -236.001v-503c0 -36.667 17.333 -55 52 -55c18 0 36 5 54 15v-109c-32 -14.667 -64.667 -22 -98 -22c-86.667 0 -131.334 51 -134.001 153
c-32.667 -50.667 -69 -88.834 -109 -114.501s-83.333 -38.5 -130 -38.5c-76 0 -139.667 27.667 -191 83s-77 123 -77 203c0 84.667 31.833 155 95.5 211s200.834 94 411.501 114v82c0 54 -17.5 98.5 -52.5 133.5s-78.5 52.5 -130.5 52.5c-74 0 -158 -36.667 -252 -110v143z
M574 491.002c-164.667 -20 -268.833 -48.167 -312.5 -84.5s-65.5 -82.5 -65.5 -138.5c0 -50.667 16 -92.5 48 -125.5s72.333 -49.5 121 -49.5c60.667 0 110.667 25.333 150 76s59 115.667 59 195v127zM266.001 1363c49.333 0 74 -42 74 -126c0 -84.667 -25 -127 -75 -127
c-48 0 -72 41 -72 123c0 86.667 24.333 130 73 130zM564.001 1361c50 0 75 -41.333 75 -124c0 -85.333 -24.333 -128 -73 -128c-50.667 0 -76 42.667 -76 128c0 82.667 24.667 124 74 124z" />
    <glyph glyph-name="aring" unicode="&#xe5;" 
d="M139 890c102 56.667 187.667 85.002 257 85.002c100 0 175.667 -29 227 -87c51.333 -58.667 77 -137.334 77 -236.001v-503c0 -36.667 17.333 -55 52 -55c18 0 36 5 54 15v-109c-32 -14.667 -64.667 -22 -98 -22c-86.667 0 -131.334 51 -134.001 153
c-32.667 -50.667 -69 -88.834 -109 -114.501s-83.333 -38.5 -130 -38.5c-76 0 -139.667 27.667 -191 83s-77 123 -77 203c0 84.667 31.833 155 95.5 211s200.834 94 411.501 114v82c0 54 -17.5 98.5 -52.5 133.5s-78.5 52.5 -130.5 52.5c-74 0 -158 -36.667 -252 -110v143z
M574 491.002c-164.667 -20 -268.833 -48.167 -312.5 -84.5s-65.5 -82.5 -65.5 -138.5c0 -50.667 16 -92.5 48 -125.5s72.333 -49.5 121 -49.5c60.667 0 110.667 25.333 150 76s59 115.667 59 195v127zM417.001 1383c39.333 0 73.833 -14.167 103.5 -42.5
s44.5 -63.5 44.5 -105.5c0 -41.333 -14.5 -76.5 -43.5 -105.5s-63.833 -43.5 -104.5 -43.5c-41.333 0 -76.5 14.5 -105.5 43.5s-43.5 64.167 -43.5 105.5c0 40.667 14.5 75.5 43.5 104.5s64.167 43.5 105.5 43.5zM417.001 1311c-21.333 0 -39.333 -7.33301 -54 -22
s-22 -32.334 -22 -53.001s7.33301 -38.334 22 -53.001s32.667 -22 54 -22c20.667 0 38.334 7.33301 53.001 22s22 32.334 22 53.001s-7.33301 38.334 -22 53.001s-32.334 22 -53.001 22z" />
    <glyph glyph-name="ae" unicode="&#xe6;" horiz-adv-x="1301" 
d="M640 819c81.333 104 173.999 156.002 277.999 156.002c98.667 0 177.834 -37.5 237.501 -112.5s89.5 -170.167 89.5 -285.5v-63h-579v-49c0 -120 25.667 -212 77 -276s110.666 -96 177.999 -96c100 0 198 51.667 294 155v-150c-101.333 -80 -202 -120 -302 -120
c-68 0 -128.833 19 -182.5 57s-100.5 94.667 -140.5 170c-27.333 -75.333 -63 -132 -107 -170s-96.333 -57 -157 -57c-75.333 0 -138.833 27.5 -190.5 82.5s-77.5 123.833 -77.5 206.5c0 69.333 19.167 126.666 57.5 171.999s91.333 78.666 159 99.999
s157.5 37.666 269.5 48.999v48c0 73.333 -15 128.333 -45 165s-75.333 55 -136 55c-36.667 0 -71 -7.33301 -103 -22s-74.333 -42.667 -127 -84v143c98.667 54.667 180.334 82 245.001 82c60 0 108.5 -11.167 145.5 -33.5s75.833 -63.166 116.5 -122.499zM1111 623.002
c-5.33301 78.667 -24 137.667 -56 177s-77.333 59 -136 59c-119.333 0 -199.333 -78.667 -240 -236h432zM543.999 487.002c-128 -12.667 -219.333 -33.667 -274 -63s-82 -80.333 -82 -153c0 -52 15 -95 45 -129s67 -51 111 -51c56.667 0 104.167 26.333 142.5 79
s57.5 114.667 57.5 186v131z" />
    <glyph glyph-name="ccedilla" unicode="&#xe7;" horiz-adv-x="725" 
d="M450 -22l-0.000976562 -101h49c50 0 91.333 -15 124 -45s49 -66.667 49 -110c0 -52.667 -22.5 -97 -67.5 -133s-100.167 -54 -165.5 -54c-48.667 0 -97.667 8.66699 -147 26v106c48.667 -26.667 94 -40 136 -40c34 0 64 7.66699 90 23s39 35.333 39 60
c0 22.667 -10.167 40 -30.5 52s-42.166 18 -65.499 18h-111v214c-86.667 28.667 -155.5 86 -206.5 172s-76.5 186 -76.5 300c0 146.667 39 268.167 117 364.5s174.667 144.5 290 144.5c66.667 0 134.667 -20 204 -60v-139c-67.333 54 -132.333 81 -195 81
c-81.333 0 -149.666 -36.333 -204.999 -109s-83 -164 -83 -274c0 -100 25 -188 75 -264s117.333 -114 202 -114c62 0 130.667 27.333 206 82v-135c-78 -44 -147.333 -66 -208 -66c-4.66699 0 -11.334 0.333008 -20.001 1z" />
    <glyph glyph-name="egrave" unicode="&#xe8;" 
d="M740 100c-101.333 -81.333 -200.333 -122 -297 -122c-113.333 0 -205 45.5 -275 136.5s-105 209.5 -105 355.5c0 150.667 36.167 272.5 108.5 365.5s163.833 139.5 274.5 139.5c98 0 176.667 -37.5 236 -112.5s89 -169.833 89 -284.5v-62h-579v-49
c0 -124 25.833 -217.667 77.5 -281s112.167 -95 181.5 -95c96 0 192.333 53 289 159v-150zM637 623c-2.66699 79.333 -23.001 138.833 -61.001 178.5s-82.333 59.5 -133 59.5c-51.333 0 -99.166 -19.833 -143.499 -59.5s-75.833 -99.167 -94.5 -178.5h432zM253.999 1384h147
l150 -293h-83z" />
    <glyph glyph-name="eacute" unicode="&#xe9;" 
d="M740 100c-101.333 -81.333 -200.333 -122 -297 -122c-113.333 0 -205 45.5 -275 136.5s-105 209.5 -105 355.5c0 150.667 36.167 272.5 108.5 365.5s163.833 139.5 274.5 139.5c98 0 176.667 -37.5 236 -112.5s89 -169.833 89 -284.5v-62h-579v-49
c0 -124 25.833 -217.667 77.5 -281s112.167 -95 181.5 -95c96 0 192.333 53 289 159v-150zM637 623c-2.66699 79.333 -23.001 138.833 -61.001 178.5s-82.333 59.5 -133 59.5c-51.333 0 -99.166 -19.833 -143.499 -59.5s-75.833 -99.167 -94.5 -178.5h432zM474.999 1383h149
l-215 -293h-84z" />
    <glyph glyph-name="ecircumflex" unicode="&#xea;" 
d="M740 100c-101.333 -81.333 -200.333 -122 -297 -122c-113.333 0 -205 45.5 -275 136.5s-105 209.5 -105 355.5c0 150.667 36.167 272.5 108.5 365.5s163.833 139.5 274.5 139.5c98 0 176.667 -37.5 236 -112.5s89 -169.833 89 -284.5v-62h-579v-49
c0 -124 25.833 -217.667 77.5 -281s112.167 -95 181.5 -95c96 0 192.333 53 289 159v-150zM637 623c-2.66699 79.333 -23.001 138.833 -61.001 178.5s-82.333 59.5 -133 59.5c-51.333 0 -99.166 -19.833 -143.499 -59.5s-75.833 -99.167 -94.5 -178.5h432zM343.999 1383h192
l148 -293h-86l-159 222l-161 -222h-81z" />
    <glyph glyph-name="edieresis" unicode="&#xeb;" 
d="M740 100c-101.333 -81.333 -200.333 -122 -297 -122c-113.333 0 -205 45.5 -275 136.5s-105 209.5 -105 355.5c0 150.667 36.167 272.5 108.5 365.5s163.833 139.5 274.5 139.5c98 0 176.667 -37.5 236 -112.5s89 -169.833 89 -284.5v-62h-579v-49
c0 -124 25.833 -217.667 77.5 -281s112.167 -95 181.5 -95c96 0 192.333 53 289 159v-150zM637 623c-2.66699 79.333 -23.001 138.833 -61.001 178.5s-82.333 59.5 -133 59.5c-51.333 0 -99.166 -19.833 -143.499 -59.5s-75.833 -99.167 -94.5 -178.5h432zM290.999 1363
c49.333 0 74 -42 74 -126c0 -84.667 -25 -127 -75 -127c-48 0 -72 41 -72 123c0 86.667 24.333 130 73 130zM588.999 1361c50 0 75 -41.333 75 -124c0 -85.333 -24.333 -128 -73 -128c-50.667 0 -76 42.667 -76 128c0 82.667 24.667 124 74 124z" />
    <glyph glyph-name="igrave" unicode="&#xec;" horiz-adv-x="341" 
d="M110 953h125v-953h-125v953zM8 1384h147l150 -293h-83z" />
    <glyph glyph-name="iacute" unicode="&#xed;" horiz-adv-x="341" 
d="M110 953h125v-953h-125v953zM229 1383h149l-215 -293h-84z" />
    <glyph glyph-name="icircumflex" unicode="&#xee;" horiz-adv-x="341" 
d="M110 953h125v-953h-125v953zM86 1383h192l148 -293h-86l-159 222l-161 -222h-81z" />
    <glyph glyph-name="idieresis" unicode="&#xef;" horiz-adv-x="341" 
d="M110 953h125v-953h-125v953zM21 1363c49.333 0 74 -42 74 -126c0 -84.667 -25 -127 -75 -127c-48 0 -72 41 -72 123c0 86.667 24.333 130 73 130zM319 1361c50 0 75 -41.333 75 -124c0 -85.333 -24.333 -128 -73 -128c-50.667 0 -76 42.667 -76 128
c0 82.667 24.667 124 74 124z" />
    <glyph glyph-name="eth" unicode="&#xf0;" horiz-adv-x="896" 
d="M378 1395l139.999 0.00195312c21.333 -20.667 40 -45 56 -73l164 73l46 -92l-155 -72c132 -223.333 198 -444.333 198 -663c0 -159.333 -35.667 -297.5 -107 -414.5s-165.333 -175.5 -282 -175.5c-112 0 -200.833 47.5 -266.5 142.5s-98.5 213.833 -98.5 356.5
c0 149.333 34.333 269.666 103 360.999s154.334 137 257.001 137c44.667 0 85.667 -10 123 -30s71 -50.333 101 -91c-28 106.667 -74.333 215 -139 325l-201 -95l-43 95l190 89c-22 39.333 -50.667 81.666 -86 126.999zM453.999 859.002
c-84.667 0 -148.168 -35.168 -190.501 -105.501s-63.5 -166.5 -63.5 -288.5c0 -104.667 21.5 -193.167 64.5 -265.5s101.5 -108.5 175.5 -108.5c68.667 0 124.834 32.5 168.501 97.5s65.5 161.5 65.5 289.5c0 120.667 -21 214.334 -63 281.001s-94.333 100 -157 100z" />
    <glyph glyph-name="ntilde" unicode="&#xf1;" horiz-adv-x="853" 
d="M111 953l113.003 0.000976562l12 -136c33.333 52.667 71.166 92.167 113.499 118.5s89.166 39.5 140.499 39.5c81.333 0 144.666 -27.333 189.999 -82s68 -127.667 68 -219v-674h-127v674c0 56 -14.667 100.667 -44 134s-67.333 50 -114 50
c-63.333 0 -117 -27.833 -161 -83.5s-66 -119.834 -66 -192.501v-582h-125v953zM183.003 1135c3.33301 144.667 56 217 158 217c49.333 0 96 -25.333 140 -76c30 -34.667 56.333 -52 79 -52c40 0 60 39.333 60 118h95c0 -147.333 -51.333 -221 -154 -221
c-46.667 0 -94.667 26.333 -144 79c-32 34 -58 51 -78 51c-40.667 0 -61 -38.667 -61 -116h-95z" />
    <glyph glyph-name="ograve" unicode="&#xf2;" horiz-adv-x="875" 
d="M440 975c104.667 0 191.999 -45.5 261.999 -136.5s105 -211.5 105 -361.5c0 -86.667 -13.833 -168.5 -41.5 -245.5s-70.5 -138.5 -128.5 -184.5s-125.333 -69 -202 -69c-114 0 -203.833 47 -269.5 141s-98.5 211.667 -98.5 353c0 112.667 20.667 210 62 292
s91.833 137.667 151.5 167s112.834 44 159.501 44zM447.999 857c-83.333 0 -146 -35.332 -188 -105.999s-63 -167 -63 -289c0 -104.667 20.667 -192.334 62 -263.001s99.333 -106 174 -106c70.667 0 128.834 32.833 174.501 98.5s68.5 161.5 68.5 287.5
c0 120 -22.333 213 -67 279s-98.334 99 -161.001 99zM272.999 1384h147l150 -293h-83z" />
    <glyph glyph-name="oacute" unicode="&#xf3;" horiz-adv-x="875" 
d="M440 975c104.667 0 191.999 -45.5 261.999 -136.5s105 -211.5 105 -361.5c0 -86.667 -13.833 -168.5 -41.5 -245.5s-70.5 -138.5 -128.5 -184.5s-125.333 -69 -202 -69c-114 0 -203.833 47 -269.5 141s-98.5 211.667 -98.5 353c0 112.667 20.667 210 62 292
s91.833 137.667 151.5 167s112.834 44 159.501 44zM447.999 857c-83.333 0 -146 -35.332 -188 -105.999s-63 -167 -63 -289c0 -104.667 20.667 -192.334 62 -263.001s99.333 -106 174 -106c70.667 0 128.834 32.833 174.501 98.5s68.5 161.5 68.5 287.5
c0 120 -22.333 213 -67 279s-98.334 99 -161.001 99zM481.999 1383h149l-215 -293h-84z" />
    <glyph glyph-name="ocircumflex" unicode="&#xf4;" horiz-adv-x="875" 
d="M440 975c104.667 0 191.999 -45.5 261.999 -136.5s105 -211.5 105 -361.5c0 -86.667 -13.833 -168.5 -41.5 -245.5s-70.5 -138.5 -128.5 -184.5s-125.333 -69 -202 -69c-114 0 -203.833 47 -269.5 141s-98.5 211.667 -98.5 353c0 112.667 20.667 210 62 292
s91.833 137.667 151.5 167s112.834 44 159.501 44zM447.999 857c-83.333 0 -146 -35.332 -188 -105.999s-63 -167 -63 -289c0 -104.667 20.667 -192.334 62 -263.001s99.333 -106 174 -106c70.667 0 128.834 32.833 174.501 98.5s68.5 161.5 68.5 287.5
c0 120 -22.333 213 -67 279s-98.334 99 -161.001 99zM350.999 1383h192l148 -293h-86l-159 222l-161 -222h-81z" />
    <glyph glyph-name="otilde" unicode="&#xf5;" horiz-adv-x="875" 
d="M440 975c104.667 0 191.999 -45.5 261.999 -136.5s105 -211.5 105 -361.5c0 -86.667 -13.833 -168.5 -41.5 -245.5s-70.5 -138.5 -128.5 -184.5s-125.333 -69 -202 -69c-114 0 -203.833 47 -269.5 141s-98.5 211.667 -98.5 353c0 112.667 20.667 210 62 292
s91.833 137.667 151.5 167s112.834 44 159.501 44zM447.999 857c-83.333 0 -146 -35.332 -188 -105.999s-63 -167 -63 -289c0 -104.667 20.667 -192.334 62 -263.001s99.333 -106 174 -106c70.667 0 128.834 32.833 174.501 98.5s68.5 161.5 68.5 287.5
c0 120 -22.333 213 -67 279s-98.334 99 -161.001 99zM169.999 1135c3.33301 144.667 56 217 158 217c49.333 0 96 -25.333 140 -76c30 -34.667 56.333 -52 79 -52c40 0 60 39.333 60 118h95c0 -147.333 -51.333 -221 -154 -221c-46.667 0 -94.667 26.333 -144 79
c-32 34 -58 51 -78 51c-40.667 0 -61 -38.667 -61 -116h-95z" />
    <glyph glyph-name="odieresis" unicode="&#xf6;" horiz-adv-x="875" 
d="M440 975c104.667 0 191.999 -45.5 261.999 -136.5s105 -211.5 105 -361.5c0 -86.667 -13.833 -168.5 -41.5 -245.5s-70.5 -138.5 -128.5 -184.5s-125.333 -69 -202 -69c-114 0 -203.833 47 -269.5 141s-98.5 211.667 -98.5 353c0 112.667 20.667 210 62 292
s91.833 137.667 151.5 167s112.834 44 159.501 44zM447.999 857c-83.333 0 -146 -35.332 -188 -105.999s-63 -167 -63 -289c0 -104.667 20.667 -192.334 62 -263.001s99.333 -106 174 -106c70.667 0 128.834 32.833 174.501 98.5s68.5 161.5 68.5 287.5
c0 120 -22.333 213 -67 279s-98.334 99 -161.001 99zM297.999 1363c49.333 0 74 -42 74 -126c0 -84.667 -25 -127 -75 -127c-48 0 -72 41 -72 123c0 86.667 24.333 130 73 130zM595.999 1361c50 0 75 -41.333 75 -124c0 -85.333 -24.333 -128 -73 -128
c-50.667 0 -76 42.667 -76 128c0 82.667 24.667 124 74 124z" />
    <glyph glyph-name="divide" unicode="&#xf7;" horiz-adv-x="1365" 
d="M608 1077c0 20 7.33203 36.667 21.999 50s31.334 20 50.001 20c20 0 37 -7 51 -21s21 -31 21 -51s-7 -37 -21 -51s-31.333 -21 -52 -21c-21.333 0 -38.5 7.66699 -51.5 23s-19.5 32.333 -19.5 51zM142.999 719h1080v-105h-1080v105zM606.999 256
c0 22 7.33301 39.999 22 53.999s32 21 52 21s37.167 -7.16699 51.5 -21.5s21.5 -31.5 21.5 -51.5c0 -19.333 -7.16699 -36.166 -21.5 -50.499s-31.5 -21.5 -51.5 -21.5c-21.333 0 -39 7.33301 -53 22s-21 30.667 -21 48z" />
    <glyph glyph-name="oslash" unicode="&#xf8;" horiz-adv-x="875" 
d="M205 73c-92 86.667 -138 219.667 -138 399c0 155.333 36.167 278 108.5 368s160.5 135 264.5 135c49.333 0 98.333 -12 147 -36l47 106h110l-73 -169c90.667 -98 136 -231 136 -399c0 -140 -32.667 -258.167 -98 -354.5s-156.666 -144.5 -273.999 -144.5
c-50.667 0 -98.334 10.667 -143.001 32l-47 -106h-115zM260 198l279 632c-33.333 18.667 -66 28 -98 28c-72.667 0 -131.5 -33.667 -176.5 -101s-67.5 -163 -67.5 -287c0 -109.333 21 -200 63 -272zM615 749l-276 -631c30 -16.667 60.333 -25 91 -25
c70 0 128.5 32.5 175.5 97.5s70.5 161.167 70.5 288.5c0 110 -20.333 200 -61 270z" />
    <glyph glyph-name="ugrave" unicode="&#xf9;" horiz-adv-x="853" 
d="M614 953l125 0.000976562v-953h-125v131c-35.333 -50.667 -74 -88.834 -116 -114.501s-87.333 -38.5 -136 -38.5c-81.333 0 -144.833 27.667 -190.5 83s-68.5 129.333 -68.5 222v670h124v-670c0 -63.333 13.333 -110.833 40 -142.5s66.667 -47.5 120 -47.5
c66.667 0 121.167 28.167 163.5 84.5s63.5 128.833 63.5 217.5v558zM252 1384h147l150 -293h-83z" />
    <glyph glyph-name="uacute" unicode="&#xfa;" horiz-adv-x="853" 
d="M614 953l125 0.000976562v-953h-125v131c-35.333 -50.667 -74 -88.834 -116 -114.501s-87.333 -38.5 -136 -38.5c-81.333 0 -144.833 27.667 -190.5 83s-68.5 129.333 -68.5 222v670h124v-670c0 -63.333 13.333 -110.833 40 -142.5s66.667 -47.5 120 -47.5
c66.667 0 121.167 28.167 163.5 84.5s63.5 128.833 63.5 217.5v558zM473 1383h149l-215 -293h-84z" />
    <glyph glyph-name="ucircumflex" unicode="&#xfb;" horiz-adv-x="853" 
d="M614 953l125 0.000976562v-953h-125v131c-35.333 -50.667 -74 -88.834 -116 -114.501s-87.333 -38.5 -136 -38.5c-81.333 0 -144.833 27.667 -190.5 83s-68.5 129.333 -68.5 222v670h124v-670c0 -63.333 13.333 -110.833 40 -142.5s66.667 -47.5 120 -47.5
c66.667 0 121.167 28.167 163.5 84.5s63.5 128.833 63.5 217.5v558zM343 1383h192l148 -293h-86l-159 222l-161 -222h-81z" />
    <glyph glyph-name="udieresis" unicode="&#xfc;" horiz-adv-x="853" 
d="M614 953l125 0.000976562v-953h-125v131c-35.333 -50.667 -74 -88.834 -116 -114.501s-87.333 -38.5 -136 -38.5c-81.333 0 -144.833 27.667 -190.5 83s-68.5 129.333 -68.5 222v670h124v-670c0 -63.333 13.333 -110.833 40 -142.5s66.667 -47.5 120 -47.5
c66.667 0 121.167 28.167 163.5 84.5s63.5 128.833 63.5 217.5v558zM277 1363c49.333 0 74 -42 74 -126c0 -84.667 -25 -127 -75 -127c-48 0 -72 41 -72 123c0 86.667 24.333 130 73 130zM575 1361c50 0 75 -41.333 75 -124c0 -85.333 -24.333 -128 -73 -128
c-50.667 0 -76 42.667 -76 128c0 82.667 24.667 124 74 124z" />
    <glyph glyph-name="yacute" unicode="&#xfd;" horiz-adv-x="725" 
d="M9 953h139l235 -798l205 798h135l-320 -1111c-34 -118.667 -69 -199.667 -105 -243s-88 -65 -156 -65c-24 0 -49.667 7.33301 -77 22v117c28 -8.66699 51 -13 69 -13c37.333 0 67.333 16.5 90 49.5s48.667 100.833 78 203.5l21 76zM421 1383h149l-215 -293h-84z" />
    <glyph glyph-name="thorn" unicode="&#xfe;" horiz-adv-x="875" 
d="M245 85l0.00292969 -528.999h-125v1839h125v-582c32.667 54 68.667 94.5 108 121.5s82 40.5 128 40.5c100 0 181.333 -47.333 244 -142s94 -209.667 94 -345c0 -146.667 -35.333 -268.334 -106 -365.001s-157.334 -145 -260.001 -145c-38.667 0 -71.834 7.5 -99.501 22.5
s-63.834 43.167 -108.501 84.5zM245.003 203.001c29.333 -36 59.167 -63.166 89.5 -81.499s61.166 -27.5 92.499 -27.5c76 0 138.167 36 186.5 108s72.5 166 72.5 282c0 105.333 -21 194.166 -63 266.499s-98 108.5 -168 108.5c-63.333 0 -114.166 -29.833 -152.499 -89.5
s-57.5 -129.5 -57.5 -209.5v-357z" />
    <glyph glyph-name="ydieresis" unicode="&#xff;" horiz-adv-x="725" 
d="M9 953h139l235 -798l205 798h135l-320 -1111c-34 -118.667 -69 -199.667 -105 -243s-88 -65 -156 -65c-24 0 -49.667 7.33301 -77 22v117c28 -8.66699 51 -13 69 -13c37.333 0 67.333 16.5 90 49.5s48.667 100.833 78 203.5l21 76zM225 1363c49.333 0 74 -42 74 -126
c0 -84.667 -25 -127 -75 -127c-48 0 -72 41 -72 123c0 86.667 24.333 130 73 130zM523 1361c50 0 75 -41.333 75 -124c0 -85.333 -24.333 -128 -73 -128c-50.667 0 -76 42.667 -76 128c0 82.667 24.667 124 74 124z" />
    <glyph glyph-name="dotlessi" unicode="&#x131;" horiz-adv-x="341" 
d="M110 953h125v-953h-125v953z" />
    <glyph glyph-name="OE" unicode="&#x152;" horiz-adv-x="1600" 
d="M1511 1395v-117.999h-542v-490h509v-115h-509v-553h542v-119h-679v159c-43.333 -60 -91.166 -105.167 -143.499 -135.5s-108.833 -45.5 -169.5 -45.5c-129.333 0 -236.833 62 -322.5 186s-128.5 305 -128.5 543c0 126.667 18.5 247.167 55.5 361.5
s91.667 201.166 164 260.499s152.166 89 239.499 89c67.333 0 126.5 -16 177.5 -48s93.5 -80.333 127.5 -145v170h679zM530 1291c-105.333 0 -185.333 -54.5 -240 -163.5s-82 -263.833 -82 -464.5c0 -172.667 29.5 -309.5 88.5 -410.5s134.167 -151.5 225.5 -151.5
c95.333 0 171 53.833 227 161.5s84 251.834 84 432.501c0 121.333 -13.167 228.666 -39.5 321.999s-64.5 162.333 -114.5 207s-99.667 67 -149 67z" />
    <glyph glyph-name="oe" unicode="&#x153;" horiz-adv-x="1429" 
d="M737 768c79.333 138 183 206.999 311 206.999c102.667 0 183.167 -39.667 241.5 -119s87.5 -183 87.5 -311v-29h-581v-71c0 -111.333 26.5 -197.833 79.5 -259.5s112.5 -92.5 178.5 -92.5c92.667 0 189 52.667 289 158v-153c-102.667 -80 -201 -120 -295 -120
c-69.333 0 -130 16.833 -182 50.5s-95 83.834 -129 150.501c-42 -66.667 -88 -116.834 -138 -150.501s-104 -50.5 -162 -50.5c-116.667 0 -207 47.833 -271 143.5s-96 213.5 -96 353.5c0 150 34.167 270.833 102.5 362.5s158.5 137.5 270.5 137.5
c60.667 0 115.5 -17.167 164.5 -51.5s92.167 -86.166 129.5 -155.499zM1242 620.999c-7.33301 80 -27.1689 140 -59.502 180s-77.166 60 -134.499 60c-117.333 0 -196.666 -80 -237.999 -240h432zM673.997 460.999c0 118 -20 213.501 -60 286.501s-98.667 109.5 -176 109.5
c-70.667 0 -128.5 -35.333 -173.5 -106s-67.5 -167.334 -67.5 -290.001c0 -103.333 20.667 -190.5 62 -261.5s99.666 -106.5 174.999 -106.5c76.667 0 135.834 36.167 177.501 108.5s62.5 158.833 62.5 259.5z" />
    <glyph glyph-name="Scaron" unicode="&#x160;" horiz-adv-x="853" 
d="M60 268c71.333 -58 129.167 -97.835 173.5 -119.502s89.5 -32.5 135.5 -32.5c72.667 0 137.5 26 194.5 78s85.5 119.667 85.5 203c0 62.667 -18.667 115 -56 157c-38 41.333 -110.333 82 -217 122c-211.333 80 -317 201.333 -317 364
c0 104.667 37.5 193.834 112.5 267.501s164.833 110.5 269.5 110.5c86 0 174.667 -32 266 -96v-181c-58 54 -105.833 91 -143.5 111s-77.5 30 -119.5 30c-70 0 -128.167 -24 -174.5 -72s-69.5 -103.667 -69.5 -167c0 -64 20.833 -114.5 62.5 -151.5
s117.167 -77.833 226.5 -122.5c66 -26.667 119.167 -53.667 159.5 -81s74 -66 101 -116s40.5 -107 40.5 -171c0 -119.333 -41.333 -219.666 -124 -300.999s-180.667 -122 -294 -122c-98.667 0 -202.667 38.333 -312 115v175zM184.001 1787h80l160 -223l161 223h84l-151 -294
h-189z" />
    <glyph glyph-name="scaron" unicode="&#x161;" horiz-adv-x="747" 
d="M69 208c93.333 -76 182.331 -114.001 266.998 -114.001c65.333 0 119.333 16.5 162 49.5s64 74.833 64 125.5c0 36.667 -14.167 67.334 -42.5 92.001s-83.166 49 -164.499 73c-100 30 -173 64.333 -219 103s-69 92.334 -69 161.001c0 78.667 31 144.5 93 197.5
s138.667 79.5 230 79.5c73.333 0 156.666 -26 249.999 -78v-142c-79.333 69.333 -160.666 104 -243.999 104c-57.333 0 -104.5 -15.333 -141.5 -46s-55.5 -67.667 -55.5 -111c0 -36.667 16.667 -66.667 50 -90c32.667 -24 87 -46.667 163 -68
c186.667 -52 280 -140.667 280 -266c0 -84.667 -34.167 -155.834 -102.5 -213.501s-151.166 -86.5 -248.499 -86.5c-90 0 -180.667 29 -272 87v143zM142.998 1385h80l160 -223l161 223h84l-151 -294h-189z" />
    <glyph glyph-name="Ydieresis" unicode="&#x178;" 
d="M8 1395h158l256 -617l245 617h156l-335 -756v-639h-137v639zM274 1765c49.333 0 74 -42 74 -126c0 -84.667 -25 -127 -75 -127c-48 0 -72 41 -72 123c0 86.667 24.333 130 73 130zM572 1763c50 0 75 -41.333 75 -124c0 -85.333 -24.333 -128 -73 -128
c-50.667 0 -76 42.667 -76 128c0 82.667 24.667 124 74 124z" />
    <glyph glyph-name="florin" unicode="&#x192;" horiz-adv-x="1131" 
d="M741 1062h224.004l-22 -92h-221l-248 -1141c-20.667 -95.333 -51.834 -162.5 -93.501 -201.5s-102.834 -58.5 -183.501 -58.5c-47.333 0 -106.333 10.333 -177 31l22 100c58 -14.667 106 -22 144 -22c44.667 0 79.5 9.83301 104.5 29.5s40.5 43.167 46.5 70.5l259 1192
h-169l20 92h168l25 108c20 84.667 38.167 146.5 54.5 185.5s44.666 71.333 84.999 97s90.5 38.5 150.5 38.5c36 0 96 -10.667 180 -32l-21 -99c-54.667 13.333 -105.334 20 -152.001 20s-81 -11.833 -103 -35.5s-40.333 -65.5 -55 -125.5z" />
    <glyph glyph-name="circumflex" unicode="&#x2c6;" horiz-adv-x="683" 
d="M245 1383h192l148 -293h-86l-159 222l-161 -222h-81z" />
    <glyph glyph-name="caron" unicode="&#x2c7;" horiz-adv-x="683" 
d="M99 1385h80l160 -223l161 223h84l-151 -294h-189z" />
    <glyph glyph-name="macron" unicode="&#x2c9;" horiz-adv-x="683" 
d="M95 1288h494v-103h-494v103z" />
    <glyph glyph-name="breve" unicode="&#x2d8;" horiz-adv-x="683" 
d="M65 1363h96.999c22 -103.333 82.333 -155 181 -155c42.667 0 81.167 13.167 115.5 39.5s54.833 64.833 61.5 115.5h98c-10 -79.333 -41 -141 -93 -185s-112.333 -66 -181 -66c-68 0 -128.167 20.833 -180.5 62.5s-85.166 104.5 -98.499 188.5z" />
    <glyph glyph-name="dotaccent" unicode="&#x2d9;" horiz-adv-x="683" 
d="M341 1363c49.333 0 74 -42 74 -126c0 -84.667 -25 -127 -75 -127c-48 0 -72 41 -72 123c0 86.667 24.333 130 73 130z" />
    <glyph glyph-name="ring" unicode="&#x2da;" horiz-adv-x="683" 
d="M342 1383c39.333 0 73.833 -14.167 103.5 -42.5s44.5 -63.5 44.5 -105.5c0 -41.333 -14.5 -76.5 -43.5 -105.5s-63.833 -43.5 -104.5 -43.5c-41.333 0 -76.5 14.5 -105.5 43.5s-43.5 64.167 -43.5 105.5c0 40.667 14.5 75.5 43.5 104.5s64.167 43.5 105.5 43.5zM342 1311
c-21.333 0 -39.333 -7.33301 -54 -22s-22 -32.334 -22 -53.001s7.33301 -38.334 22 -53.001s32.667 -22 54 -22c20.667 0 38.334 7.33301 53.001 22s22 32.334 22 53.001s-7.33301 38.334 -22 53.001s-32.334 22 -53.001 22z" />
    <glyph glyph-name="ogonek" unicode="&#x2db;" horiz-adv-x="683" 
d="M246 21l92.001 -0.000976562c-22 -68.667 -33 -124.667 -33 -168c0 -46 13.333 -83.333 40 -112s62.667 -43 108 -43c41.333 0 92 11.667 152 35v-84c-72.667 -35.333 -141.334 -53 -206.001 -53c-61.333 0 -109 20.833 -143 62.5s-51 92.834 -51 153.501
c0 50 13.667 119.667 41 209z" />
    <glyph glyph-name="tilde" unicode="&#x2dc;" horiz-adv-x="683" 
d="M76 1135c3.33301 144.667 56 217 158 217c49.333 0 96 -25.333 140 -76c30 -34.667 56.333 -52 79 -52c40 0 60 39.333 60 118h95c0 -147.333 -51.333 -221 -154 -221c-46.667 0 -94.667 26.333 -144 79c-32 34 -58 51 -78 51c-40.667 0 -61 -38.667 -61 -116h-95z" />
    <glyph glyph-name="hungarumlaut" unicode="&#x2dd;" horiz-adv-x="683" 
d="M315 1383h149l-215 -293h-84zM538 1383h149l-215 -293h-84z" />
    <glyph glyph-name="pi" unicode="&#x3c0;" horiz-adv-x="1124" 
d="M1024 916l0.00390625 -146.001h-232c-26 -157.333 -39 -310.333 -39 -459c0 -62 12.333 -106.167 37 -132.5s54 -39.5 88 -39.5c65.333 0 102 37 110 111h36c-12 -96.667 -36.833 -167.167 -74.5 -211.5s-81.5 -66.5 -131.5 -66.5c-48 0 -89.167 22.5 -123.5 67.5
s-51.5 138.167 -51.5 279.5c0 130 12.667 280.333 38 451h-235l-17 -245c-6 -86 -17.5 -177.667 -34.5 -275s-33.333 -162.666 -49 -195.999s-31.167 -55.333 -46.5 -66s-31 -16 -47 -16c-24.667 0 -45.834 8.16699 -63.501 24.5s-26.5 35.833 -26.5 58.5
c0 20 2.83301 36.5 8.5 49.5s24.5 41.5 56.5 85.5c34.667 47.333 58 103.5 70 168.5s24.667 202.167 38 411.5h-29c-44.667 0 -81.834 -9 -111.501 -27s-61.834 -56 -96.501 -114h-36c20 75.333 46 135.5 78 180.5s64.167 74 96.5 87s82.166 19.5 149.499 19.5h638z" />
    <glyph glyph-name="endash" unicode="&#x2013;" horiz-adv-x="1024" 
d="M-21 551h1066v-61h-1066v61z" />
    <glyph glyph-name="emdash" unicode="&#x2014;" horiz-adv-x="2048" 
d="M-22 552h2091v-63h-2091v63z" />
    <glyph glyph-name="quoteleft" unicode="&#x2018;" horiz-adv-x="427" 
d="M210 1395l69.001 -0.000976562c-40.667 -84.667 -63.667 -164.667 -69 -240c50.667 -24.667 76 -63 76 -115c0 -43.333 -9.83301 -78.166 -29.5 -104.499s-42.834 -39.5 -69.501 -39.5s-48.167 14.167 -64.5 42.5s-24.5 63.5 -24.5 105.5c0 108 37.333 225 112 351z" />
    <glyph glyph-name="quoteright" unicode="&#x2019;" horiz-adv-x="427" 
d="M216 918l-69 -0.000976562c40 85.333 63 166.666 69 243.999c-25.333 12.667 -44.333 28.334 -57 47.001s-19 40.667 -19 66c0 41.333 9.5 75.5 28.5 102.5s42.5 40.5 70.5 40.5c26 0 47.333 -14.333 64 -43s25 -64 25 -106c0 -54 -9.33301 -110.167 -28 -168.5
s-46.667 -119.166 -84 -182.499z" />
    <glyph glyph-name="quotesinglbase" unicode="&#x201a;" horiz-adv-x="427" 
d="M216 -263l-69.001 0.00195312c40 85.333 63 166.666 69 243.999c-25.333 12.667 -44.333 28.5 -57 47.5s-19 41.5 -19 67.5c0 43.333 9.83301 78.333 29.5 105s42.834 40 69.501 40s48.167 -14.333 64.5 -43s24.5 -64.334 24.5 -107.001
c0 -54 -9.33301 -110.5 -28 -169.5s-46.667 -120.5 -84 -184.5z" />
    <glyph glyph-name="quotedblleft" unicode="&#x201c;" horiz-adv-x="747" 
d="M530 1395h69c-40.667 -84.667 -63.667 -164.667 -69 -240c50.667 -25.333 76 -64 76 -116c0 -42 -9.5 -76.5 -28.5 -103.5s-42.5 -40.5 -70.5 -40.5c-26.667 0 -48.167 14.5 -64.5 43.5s-24.5 64.167 -24.5 105.5c0 108 37.333 225 112 351zM210 1395
l69.001 -0.000976562c-40.667 -84.667 -63.667 -164.667 -69 -240c50.667 -24.667 76 -63 76 -115c0 -43.333 -9.83301 -78.166 -29.5 -104.499s-42.834 -39.5 -69.501 -39.5s-48.167 14.167 -64.5 42.5s-24.5 63.5 -24.5 105.5c0 108 37.333 225 112 351z" />
    <glyph glyph-name="quotedblright" unicode="&#x201d;" horiz-adv-x="747" 
d="M216 918l-69 -0.000976562c40 85.333 63 166.333 69 243c-25.333 12.667 -44.333 28.5 -57 47.5s-19 41.167 -19 66.5c0 41.333 9.5 75.5 28.5 102.5s42.5 40.5 70.5 40.5c26.667 0 48.167 -14.333 64.5 -43s24.5 -64 24.5 -106c0 -54 -9.33301 -110.167 -28 -168.5
s-46.667 -119.166 -84 -182.499zM536 917.999l-68.999 -0.00195312c40.667 84.667 63.667 165 69 241c-25.333 12.667 -44.333 28.5 -57 47.5s-19 41.5 -19 67.5c0 42.667 9.66699 77.334 29 104.001s42.666 40 69.999 40c26.667 0 48.167 -14.333 64.5 -43
s24.5 -64 24.5 -106c0 -54 -9.33301 -110.167 -28 -168.5s-46.667 -119.166 -84 -182.499z" />
    <glyph glyph-name="quotedblbase" unicode="&#x201e;" horiz-adv-x="747" 
d="M216 -260l-69.001 0.000976562c40 85.333 63 166.333 69 243c-50.667 25.333 -76 64 -76 116c0 43.333 9.83301 78.166 29.5 104.499s42.834 39.5 69.501 39.5s48.167 -14.5 64.5 -43.5s24.5 -64.167 24.5 -105.5c0 -105.333 -37.333 -223.333 -112 -354z
M535.999 -259.999l-69 -0.000976562c40 84 63 164 69 240c-50.667 25.333 -76 64 -76 116c0 42.667 9.5 77.334 28.5 104.001s42.5 40 70.5 40c26.667 0 48.167 -14.333 64.5 -43s24.5 -63.667 24.5 -105c0 -104.667 -37.333 -222 -112 -352z" />
    <glyph glyph-name="dagger" unicode="&#x2020;" 
d="M360 1372h111v-419h260v-104h-260v-1203h-111v1203h-259v104h259v419z" />
    <glyph glyph-name="daggerdbl" unicode="&#x2021;" 
d="M361 1374h110v-386h260v-93h-260v-771h260v-93h-260v-385h-110v385h-259v93h259v771h-259v93h259v386z" />
    <glyph glyph-name="bullet" unicode="&#x2022;" horiz-adv-x="1024" 
d="M761 722c0 -74.667 -24.6689 -136.167 -74.002 -184.5s-107.666 -72.5 -174.999 -72.5c-69.333 0 -128.166 24.667 -176.499 74s-72.5 108.333 -72.5 177s24.333 127.5 73 176.5s107.334 73.5 176.001 73.5c71.333 0 130.666 -25.333 177.999 -76s71 -106.667 71 -168z
" />
    <glyph glyph-name="ellipsis" unicode="&#x2026;" horiz-adv-x="2048" 
d="M1722 243c25.333 0 46.166 -11.168 62.499 -33.501s24.5 -51.166 24.5 -86.499c0 -36 -8.16699 -65.5 -24.5 -88.5s-37.166 -34.5 -62.499 -34.5c-26.667 0 -47.667 11.5 -63 34.5s-23 52.167 -23 87.5c0 38 8.33301 67.667 25 89s37 32 61 32zM1037 239.999
c25.333 0 46.167 -11.334 62.5 -34.001s24.5 -52.667 24.5 -90c0 -36.667 -8 -67 -24 -91s-36.667 -36 -62 -36c-26.667 0 -47.667 12 -63 36s-23 53.667 -23 89c0 38.667 8 69.334 24 92.001s36.333 34 61 34zM354.001 238.998c26.667 0 47.666 -11.332 62.999 -33.999
s23 -52.334 23 -89.001c0 -84.667 -28.333 -127 -85 -127c-26.667 0 -47.5 11.5 -62.5 34.5s-22.5 52.5 -22.5 88.5c0 42 8.33301 73.667 25 95s36.334 32 59.001 32z" />
    <glyph glyph-name="perthousand" unicode="&#x2030;" horiz-adv-x="2155" 
d="M1037 1494h114.999l-684 -1588h-113l565 1319c-57.333 -30 -109.333 -45 -156 -45c-46 0 -95 15 -147 45c19.333 -50.667 29 -111 29 -181c0 -106.667 -23 -194.667 -69 -264s-114.667 -104 -206 -104c-85.333 0 -152 34.5 -200 103.5s-72 157.167 -72 264.5
c0 119.333 24.667 211.5 74 276.5s115 97.5 197 97.5c46 0 104 -20.333 174 -61c84.667 -48 157.334 -72 218.001 -72c129.333 0 221 69.667 275 209zM381.999 1314c-47.333 0 -85.333 -22.5 -114 -67.5s-43 -112.5 -43 -202.5c0 -84 13.833 -148.667 41.5 -194
s63.5 -68 107.5 -68c46 0 82.167 23.833 108.5 71.5s39.5 114.5 39.5 200.5c0 85.333 -12.667 150 -38 194s-59.333 66 -102 66zM1768 719c94.667 0 166.332 -34 214.999 -102s73 -155.667 73 -263c0 -110.667 -22.667 -201 -68 -271s-114.666 -105 -207.999 -105
c-87.333 0 -155.333 34.167 -204 102.5s-73 155.166 -73 260.499c0 124.667 26.167 218.834 78.5 282.501s114.5 95.5 186.5 95.5zM1783 615c-50.667 0 -88.667 -23.001 -114 -69.001s-38 -115 -38 -207c0 -78 13 -139.833 39 -185.5s62.333 -68.5 109 -68.5
c46 0 82.167 23.833 108.5 71.5s39.5 112.834 39.5 195.501c0 87.333 -14.5 153 -43.5 197s-62.5 66 -100.5 66zM1121 718.999c96.667 0 168.832 -34.5 216.499 -103.5s71.5 -156.167 71.5 -261.5c0 -110.667 -22.667 -201 -68 -271s-114.666 -105 -207.999 -105
c-87.333 0 -155.333 34.167 -204 102.5s-73 155.166 -73 260.499c0 124.667 26.167 218.834 78.5 282.501s114.5 95.5 186.5 95.5zM1137 614.999c-50.667 0 -88.668 -23.001 -114.001 -69.001s-38 -115 -38 -207c0 -78 12.833 -139.833 38.5 -185.5
s61.834 -68.5 108.501 -68.5c46 0 82.167 23.833 108.5 71.5s39.5 112.834 39.5 195.501c0 86 -14.167 151.333 -42.5 196s-61.833 67 -100.5 67z" />
    <glyph glyph-name="guilsinglleft" unicode="&#x2039;" horiz-adv-x="341" 
d="M190 789h102l-102 -315l102 -317h-102l-108 317z" />
    <glyph glyph-name="guilsinglright" unicode="&#x203a;" horiz-adv-x="341" 
d="M152 157h-102l102 315l-102 317h102l108 -317z" />
    <glyph glyph-name="trademark" unicode="&#x2122;" horiz-adv-x="1920" 
d="M202 1395h636v-84h-268v-729h-102v729h-266v84zM932 1395h153l204 -649l213 649h155v-813h-91v729l-243 -729h-69l-230 729v-729h-92v813z" />
    <glyph glyph-name="Omega" unicode="&#x2126;" horiz-adv-x="1573" 
d="M86 313l36.001 0.000976562c2 -36 13.167 -66.167 33.5 -90.5s63.5 -36.5 129.5 -36.5h270v67c-110.667 21.333 -210.667 80.833 -300 178.5s-134 219.5 -134 365.5c0 170.667 63.667 311.667 191 423s286.666 167 477.999 167c190 0 348 -54.5 474 -163.5
s189 -250.167 189 -423.5c0 -140 -39.5 -257 -118.5 -351s-184.833 -159.333 -317.5 -196v-67h275c53.333 0 92 9.5 116 28.5s38 51.833 42 98.5h36v-313h-559l22 302c172 54.667 258 213.667 258 477c0 172 -42 303.833 -126 395.5s-182.667 137.5 -296 137.5
c-120.667 0 -220.667 -48.5 -300 -145.5s-119 -221.5 -119 -373.5c0 -127.333 19.667 -232.333 59 -315s105 -141.334 197 -176.001l23 -302h-559v313z" />
    <glyph glyph-name="partialdiff" unicode="&#x2202;" horiz-adv-x="1003" 
d="M925 717c8 72 11.999 134.332 11.999 186.999c0 118 -31.333 210.167 -94 276.5s-146.667 99.5 -252 99.5c-63.333 0 -120.166 -13.167 -170.499 -39.5s-93.833 -66.166 -130.5 -119.499h-46c45.333 100.667 99.833 176 163.5 226s136.167 75 217.5 75
c103.333 0 190.166 -41 260.499 -123s105.5 -208.667 105.5 -380c0 -240.667 -55.333 -459.167 -166 -655.5s-252.667 -294.5 -426 -294.5c-98 0 -179 28.667 -243 86s-96 140.333 -96 249c0 159.333 54.833 299.833 164.5 421.5s238.834 182.5 387.501 182.5
c68 0 130.667 -17.5 188 -52.5s99 -81.167 125 -138.5zM907.999 627.999c-24.667 75.333 -64.0029 131.667 -118.003 169s-110.333 56 -169 56c-62.667 0 -124.5 -22.833 -185.5 -68.5s-110.667 -122 -149 -229s-57.5 -204.5 -57.5 -292.5c0 -70 17.333 -127 52 -171
s82.334 -66 143.001 -66c90.667 0 183.834 54.5 279.501 163.5s163.834 255.167 204.501 438.5z" />
    <glyph glyph-name="Delta" unicode="&#x2206;" horiz-adv-x="1259" 
d="M1229 0h-1200l628 1387zM993 82l-399 967l-440 -967h839z" />
    <glyph glyph-name="product" unicode="&#x220f;" horiz-adv-x="1685" 
d="M1239 1438h-795.001v-1449c0 -56.667 13 -96.667 39 -120s67 -35 123 -35h36v-38h-597v38h35c58 0 99.667 12 125 36s38 63.667 38 119v1334c0 57.333 -13.167 97.5 -39.5 120.5s-67.5 34.5 -123.5 34.5h-35v38h1594v-38h-35c-61.333 0 -103.666 -12.5 -126.999 -37.5
s-35 -64.167 -35 -117.5v-1334c0 -56.667 13 -96.667 39 -120s67 -35 123 -35h35v-38h-597v38h35c58 0 99.5 12 124.5 36s37.5 63.667 37.5 119v1449z" />
    <glyph glyph-name="summation" unicode="&#x2211;" horiz-adv-x="1451" 
d="M1351 -204h-1313v36l669 831l-669 817v37h1278l27 -337h-40c-18 170.667 -101 256 -249 256h-740l562 -687l-629 -777h818c44.667 0 91 7.66699 139 23s84.333 39.5 109 72.5s45.334 83.167 62.001 150.5l40 -7z" />
    <glyph glyph-name="fraction" unicode="&#x2215;" horiz-adv-x="213" 
d="M595 1395l-835 -1486h-112l823 1486h124z" />
    <glyph glyph-name="periodcentered" unicode="&#x2219;" horiz-adv-x="469" 
d="M232 781c23.333 0 41.833 -11 55.5 -33s20.5 -48.667 20.5 -80c0 -76.667 -25.333 -115 -76 -115c-47.333 0 -71 37 -71 111c0 38 7 67 21 87s30.667 30 50 30z" />
    <glyph glyph-name="radical" unicode="&#x221a;" horiz-adv-x="1124" 
d="M1050 1869h74l-312 -1947l-496 1021l-198 -91l-34 64l301 151l405 -823z" />
    <glyph glyph-name="infinity" unicode="&#x221e;" horiz-adv-x="1460" 
d="M654 808c46.667 112.667 99.3301 187.001 157.997 223.001s129.334 54 212.001 54c111.333 0 203 -39.5 275 -118.5s108 -178.5 108 -298.5c0 -124.667 -36.833 -225.667 -110.5 -303s-153.167 -116 -238.5 -116c-65.333 0 -121.666 20 -168.999 60
s-103.333 115.333 -168 226c-75.333 -155.333 -183.333 -233 -324 -233c-72 0 -132.667 17.167 -182 51.5s-88.5 76.666 -117.5 126.999s-43.5 113.833 -43.5 190.5c0 108 30.333 196 91 264s132.667 102 216 102c51.333 0 100.333 -13.833 147 -41.5
s95.334 -90.167 146.001 -187.5zM749.996 605.001c45.333 -98 92.668 -166.333 142.001 -205s106 -58 170 -58c86 0 155.5 31 208.5 93s79.5 139.667 79.5 233c0 96.667 -28.833 177.334 -86.5 242.001s-122.834 97 -195.501 97c-56.667 0 -106.667 -19.333 -150 -58
s-99.333 -153.334 -168 -344.001zM624.998 731.001c-60 143.333 -148.999 215.001 -266.999 215.001c-64 0 -121.5 -23.333 -172.5 -70s-76.5 -114.667 -76.5 -204c0 -92 24.167 -163.667 72.5 -215s100.833 -77 157.5 -77c45.333 0 91.666 18.667 138.999 56
s96.333 135.666 147 294.999z" />
    <glyph glyph-name="integral" unicode="&#x222b;" horiz-adv-x="561" 
d="M200 895l11.999 444.998c6 229.333 31 373.833 75 433.5s93.333 89.5 148 89.5c28.667 0 56.667 -10.167 84 -30.5s41 -45.833 41 -76.5c0 -29.333 -8.5 -54 -25.5 -74s-39.167 -30 -66.5 -30c-23.333 0 -48.666 12 -75.999 36c-15.333 13.333 -28.666 20 -39.999 20
c-26.667 0 -40 -21 -40 -63c0 -28 3 -76.667 9 -146c24.667 -274 37 -495.667 37 -665c0 -45.333 -4 -202.166 -12 -470.499s-33.667 -432.666 -77 -492.999s-93.666 -90.5 -150.999 -90.5c-32.667 0 -60.5 10.833 -83.5 32.5s-34.5 51.167 -34.5 88.5
c0 28.667 8.16699 52.334 24.5 71.001s38.166 28 65.499 28c26.667 0 50 -11 70 -33c18.667 -20.667 34.667 -31 48 -31s23.166 5.16699 29.499 15.5s9.5 25.5 9.5 45.5c0 28 -3 68 -9 120c-25.333 211.333 -38 470.666 -38 777.999z" />
    <glyph glyph-name="approxequal" unicode="&#x2248;" horiz-adv-x="1344" 
d="M1209 897c-106 -82.667 -197.67 -124 -275.003 -124c-39.333 0 -77.666 5.33301 -114.999 16s-107.666 40.667 -210.999 90c-79.333 37.333 -140 56 -182 56c-82.667 0 -179.667 -45 -291 -135v121c102.667 81.333 200.334 122 293.001 122c57.333 0 153 -31.667 287 -95
c94.667 -44 163.667 -66 207 -66c86 0 181.667 46 287 138v-123zM1209 415c-106 -83.333 -197.67 -125 -275.003 -125c-39.333 0 -77.666 5.5 -114.999 16.5s-107.666 40.833 -210.999 89.5c-79.333 38 -140 57 -182 57c-82.667 0 -179.667 -45 -291 -135v121
c102.667 81.333 200.334 122 293.001 122c57.333 0 153 -31.667 287 -95c94.667 -44.667 163.667 -67 207 -67c83.333 0 179 46.333 287 139v-123z" />
    <glyph glyph-name="notequal" unicode="&#x2260;" horiz-adv-x="1365" 
d="M143 953h602l209 532h91l-204 -532h380v-108h-424l-139 -357h563v-108h-604l-211 -530h-92l209 530h-380v108h422l139 357h-561v108z" />
    <glyph glyph-name="lessequal" unicode="&#x2264;" horiz-adv-x="1365" 
d="M1221 361l-1078 456v97l1078 455v-117l-934 -386l934 -387v-118zM142 108h1080v-108h-1080v108z" />
    <glyph glyph-name="greaterequal" unicode="&#x2265;" horiz-adv-x="1365" 
d="M143 1369l1078 -456v-97l-1078 -455v117l934 386l-934 387v118zM142 108h1080v-108h-1080v108z" />
    <glyph glyph-name="lozenge" unicode="&#x25ca;" horiz-adv-x="1012" 
d="M548 1422l418 -713l-418 -709h-111l-391 709l391 713h111zM494 1325l-340 -616l340 -615l359 615z" />
    <glyph glyph-name="fi" unicode="&#xf001;" horiz-adv-x="789" 
d="M127 953v214.999c0 83.333 16.167 145.833 48.5 187.5s80.5 62.5 144.5 62.5c32.667 0 69.667 -7.66699 111 -23v-115c-32.667 14.667 -60.667 22 -84 22c-28.667 0 -51.667 -9.16699 -69 -27.5s-26 -42.166 -26 -71.499v-250h414v-953h-126v843h-288v-843h-125v843h-129
v110h129zM604 1375c49.333 0 74 -38 74 -114c0 -78.667 -25 -118 -75 -118c-49.333 0 -74 38 -74 114c0 78.667 25 118 75 118z" />
    <glyph glyph-name="fl" unicode="&#xf002;" horiz-adv-x="789" 
d="M126 953l0.000976562 215c0 83.333 16.167 145.833 48.5 187.5s80.5 62.5 144.5 62.5c32.667 0 69.667 -7.66699 111 -23v-115c-32 14.667 -60.667 22 -86 22c-30.667 0 -53.834 -9.83301 -69.501 -29.5s-23.5 -49.167 -23.5 -88.5v-231h285v442h126v-1395h-126v843h-285
v-843h-125v843h-129v110h129z" />
    <glyph glyph-name=".null" horiz-adv-x="0" 
 />
    <glyph glyph-name="nonmarkingreturn" horiz-adv-x="469" 
 />
    </font>
</defs>
</svg>
